<?xml version="1.0" encoding="UTF-8" standalone="no"?><svg xmlns="http://www.w3.org/2000/svg" xmlns:xlink="http://www.w3.org/1999/xlink" contentStyleType="text/css" height="724px" preserveAspectRatio="none" style="width:655px;height:724px;background:#FFFFFF;" version="1.1" viewBox="0 0 655 724" width="655px" zoomAndPan="magnify"><defs/><g><rect fill="none" height="102.0938" style="stroke:#000000;stroke-width:1.5;" width="639" x="10" y="468.4453"/><line style="stroke:#181818;stroke-width:0.5;stroke-dasharray:5.0,5.0;" x1="42" x2="42" y1="80.6406" y2="644.5859"/><line style="stroke:#181818;stroke-width:0.5;stroke-dasharray:5.0,5.0;" x1="200" x2="200" y1="80.6406" y2="644.5859"/><line style="stroke:#181818;stroke-width:0.5;stroke-dasharray:5.0,5.0;" x1="400.5" x2="400.5" y1="80.6406" y2="644.5859"/><line style="stroke:#181818;stroke-width:0.5;stroke-dasharray:5.0,5.0;" x1="600" x2="600" y1="80.6406" y2="644.5859"/><text fill="#000000" font-family="sans-serif" font-size="14" lengthAdjust="spacing" textLength="39" x="20" y="77.6738">Admin</text><ellipse cx="42.5" cy="13.5" fill="#0000FF" rx="8" ry="8" style="stroke:#181818;stroke-width:0.5;"/><path d="M42.5,21.5 L42.5,48.5 M29.5,29.5 L55.5,29.5 M42.5,48.5 L29.5,63.5 M42.5,48.5 L55.5,63.5 " fill="none" style="stroke:#181818;stroke-width:0.5;"/><text fill="#000000" font-family="sans-serif" font-size="14" lengthAdjust="spacing" textLength="39" x="20" y="656.2598">Admin</text><ellipse cx="42.5" cy="667.7266" fill="#0000FF" rx="8" ry="8" style="stroke:#181818;stroke-width:0.5;"/><path d="M42.5,675.7266 L42.5,702.7266 M29.5,683.7266 L55.5,683.7266 M42.5,702.7266 L29.5,717.7266 M42.5,702.7266 L55.5,717.7266 " fill="none" style="stroke:#181818;stroke-width:0.5;"/><rect fill="#E2E2F0" height="29.6406" rx="2.5" ry="2.5" style="stroke:#181818;stroke-width:0.5;" width="69" x="166" y="50"/><text fill="#000000" font-family="sans-serif" font-size="14" lengthAdjust="spacing" textLength="55" x="173" y="69.6738">Interface</text><rect fill="#E2E2F0" height="29.6406" rx="2.5" ry="2.5" style="stroke:#181818;stroke-width:0.5;" width="69" x="166" y="643.5859"/><text fill="#000000" font-family="sans-serif" font-size="14" lengthAdjust="spacing" textLength="55" x="173" y="663.2598">Interface</text><rect fill="#E2E2F0" height="29.6406" rx="2.5" ry="2.5" style="stroke:#181818;stroke-width:0.5;" width="94" x="353.5" y="50"/><text fill="#000000" font-family="sans-serif" font-size="14" lengthAdjust="spacing" textLength="80" x="360.5" y="69.6738">ReviewPosts</text><rect fill="#E2E2F0" height="29.6406" rx="2.5" ry="2.5" style="stroke:#181818;stroke-width:0.5;" width="94" x="353.5" y="643.5859"/><text fill="#000000" font-family="sans-serif" font-size="14" lengthAdjust="spacing" textLength="80" x="360.5" y="663.2598">ReviewPosts</text><text fill="#000000" font-family="sans-serif" font-size="14" lengthAdjust="spacing" textLength="71" x="562" y="77.6738">datasource</text><path d="M582.5,29 C582.5,19 600.5,19 600.5,19 C600.5,19 618.5,19 618.5,29 L618.5,55 C618.5,65 600.5,65 600.5,65 C600.5,65 582.5,65 582.5,55 L582.5,29 " fill="#E2E2F0" style="stroke:#181818;stroke-width:1.5;"/><path d="M582.5,29 C582.5,39 600.5,39 600.5,39 C600.5,39 618.5,39 618.5,29 " fill="none" style="stroke:#181818;stroke-width:1.5;"/><text fill="#000000" font-family="sans-serif" font-size="14" lengthAdjust="spacing" textLength="71" x="562" y="656.2598">datasource</text><path d="M582.5,669.2266 C582.5,659.2266 600.5,659.2266 600.5,659.2266 C600.5,659.2266 618.5,659.2266 618.5,669.2266 L618.5,695.2266 C618.5,705.2266 600.5,705.2266 600.5,705.2266 C600.5,705.2266 582.5,705.2266 582.5,695.2266 L582.5,669.2266 " fill="#E2E2F0" style="stroke:#181818;stroke-width:1.5;"/><path d="M582.5,669.2266 C582.5,679.2266 600.5,679.2266 600.5,679.2266 C600.5,679.2266 618.5,679.2266 618.5,669.2266 " fill="none" style="stroke:#181818;stroke-width:1.5;"/><polygon fill="#181818" points="188.5,107.1641,198.5,111.1641,188.5,115.1641,192.5,111.1641" style="stroke:#181818;stroke-width:1.0;"/><line style="stroke:#181818;stroke-width:1.0;" x1="42.5" x2="194.5" y1="111.1641" y2="111.1641"/><text fill="#000000" font-family="sans-serif" font-size="13" lengthAdjust="spacing" textLength="134" x="49.5" y="106.4092">Admin/staff Credentials</text><polygon fill="#181818" points="588.5,135.6875,598.5,139.6875,588.5,143.6875,592.5,139.6875" style="stroke:#181818;stroke-width:1.0;"/><line style="stroke:#181818;stroke-width:1.0;" x1="200.5" x2="594.5" y1="139.6875" y2="139.6875"/><text fill="#000000" font-family="sans-serif" font-size="13" lengthAdjust="spacing" textLength="146" x="207.5" y="134.9326">get UserDetailsByEmail()</text><polygon fill="#181818" points="211.5,164.2109,201.5,168.2109,211.5,172.2109,207.5,168.2109" style="stroke:#181818;stroke-width:1.0;"/><line style="stroke:#181818;stroke-width:1.0;stroke-dasharray:2.0,2.0;" x1="205.5" x2="599.5" y1="168.2109" y2="168.2109"/><text fill="#000000" font-family="sans-serif" font-size="13" lengthAdjust="spacing" textLength="115" x="217.5" y="163.4561">Admin/StaffDetails()</text><polygon fill="#181818" points="411.5,192.7344,401.5,196.7344,411.5,200.7344,407.5,196.7344" style="stroke:#181818;stroke-width:1.0;"/><line style="stroke:#181818;stroke-width:1.0;stroke-dasharray:2.0,2.0;" x1="405.5" x2="599.5" y1="196.7344" y2="196.7344"/><text fill="#000000" font-family="sans-serif" font-size="13" lengthAdjust="spacing" textLength="116" x="417.5" y="191.9795">displayReviewPost()</text><polygon fill="#181818" points="211.5,221.2578,201.5,225.2578,211.5,229.2578,207.5,225.2578" style="stroke:#181818;stroke-width:1.0;"/><line style="stroke:#181818;stroke-width:1.0;stroke-dasharray:2.0,2.0;" x1="205.5" x2="399.5" y1="225.2578" y2="225.2578"/><text fill="#000000" font-family="sans-serif" font-size="13" lengthAdjust="spacing" textLength="116" x="217.5" y="220.5029">displayReviewPost()</text><polygon fill="#181818" points="188.5,249.7813,198.5,253.7813,188.5,257.7813,192.5,253.7813" style="stroke:#181818;stroke-width:1.0;"/><line style="stroke:#181818;stroke-width:1.0;" x1="42.5" x2="194.5" y1="253.7813" y2="253.7813"/><text fill="#000000" font-family="sans-serif" font-size="13" lengthAdjust="spacing" textLength="133" x="49.5" y="249.0264">getPostDetailsById(int)</text><polygon fill="#181818" points="388.5,278.3047,398.5,282.3047,388.5,286.3047,392.5,282.3047" style="stroke:#181818;stroke-width:1.0;"/><line style="stroke:#181818;stroke-width:1.0;" x1="200.5" x2="394.5" y1="282.3047" y2="282.3047"/><text fill="#000000" font-family="sans-serif" font-size="13" lengthAdjust="spacing" textLength="133" x="207.5" y="277.5498">getPostDetailsById(int)</text><polygon fill="#181818" points="588.5,306.8281,598.5,310.8281,588.5,314.8281,592.5,310.8281" style="stroke:#181818;stroke-width:1.0;"/><line style="stroke:#181818;stroke-width:1.0;" x1="400.5" x2="594.5" y1="310.8281" y2="310.8281"/><text fill="#000000" font-family="sans-serif" font-size="13" lengthAdjust="spacing" textLength="133" x="407.5" y="306.0732">getPostDetailsById(int)</text><polygon fill="#181818" points="411.5,335.3516,401.5,339.3516,411.5,343.3516,407.5,339.3516" style="stroke:#181818;stroke-width:1.0;"/><line style="stroke:#181818;stroke-width:1.0;stroke-dasharray:2.0,2.0;" x1="405.5" x2="599.5" y1="339.3516" y2="339.3516"/><text fill="#000000" font-family="sans-serif" font-size="13" lengthAdjust="spacing" textLength="176" x="417.5" y="334.5967">Post = getPostDetailsById(int)</text><polygon fill="#181818" points="211.5,363.875,201.5,367.875,211.5,371.875,207.5,367.875" style="stroke:#181818;stroke-width:1.0;"/><line style="stroke:#181818;stroke-width:1.0;stroke-dasharray:2.0,2.0;" x1="205.5" x2="399.5" y1="367.875" y2="367.875"/><text fill="#000000" font-family="sans-serif" font-size="13" lengthAdjust="spacing" textLength="176" x="217.5" y="363.1201">Post = getPostDetailsById(int)</text><polygon fill="#181818" points="188.5,392.3984,198.5,396.3984,188.5,400.3984,192.5,396.3984" style="stroke:#181818;stroke-width:1.0;"/><line style="stroke:#181818;stroke-width:1.0;" x1="42.5" x2="194.5" y1="396.3984" y2="396.3984"/><text fill="#000000" font-family="sans-serif" font-size="13" lengthAdjust="spacing" textLength="86" x="49.5" y="391.6436">approvedPost()</text><polygon fill="#181818" points="388.5,420.9219,398.5,424.9219,388.5,428.9219,392.5,424.9219" style="stroke:#181818;stroke-width:1.0;"/><line style="stroke:#181818;stroke-width:1.0;" x1="200.5" x2="394.5" y1="424.9219" y2="424.9219"/><text fill="#000000" font-family="sans-serif" font-size="13" lengthAdjust="spacing" textLength="100" x="207.5" y="420.167">approvedPost(int)</text><polygon fill="#181818" points="588.5,449.4453,598.5,453.4453,588.5,457.4453,592.5,453.4453" style="stroke:#181818;stroke-width:1.0;"/><line style="stroke:#181818;stroke-width:1.0;" x1="400.5" x2="594.5" y1="453.4453" y2="453.4453"/><text fill="#000000" font-family="sans-serif" font-size="13" lengthAdjust="spacing" textLength="100" x="407.5" y="448.6904">approvedPost(int)</text><path d="M10,468.4453 L71,468.4453 L71,474.9688 L61,484.9688 L10,484.9688 L10,468.4453 " fill="#EEEEEE" style="stroke:#000000;stroke-width:1.5;"/><rect fill="none" height="102.0938" style="stroke:#000000;stroke-width:1.5;" width="639" x="10" y="468.4453"/><text fill="#000000" font-family="sans-serif" font-size="13" font-weight="bold" lengthAdjust="spacing" textLength="16" x="25" y="481.2139">alt</text><polygon fill="#181818" points="188.5,501.4922,198.5,505.4922,188.5,509.4922,192.5,505.4922" style="stroke:#181818;stroke-width:1.0;"/><line style="stroke:#181818;stroke-width:1.0;" x1="42.5" x2="194.5" y1="505.4922" y2="505.4922"/><text fill="#000000" font-family="sans-serif" font-size="13" lengthAdjust="spacing" textLength="105" x="49.5" y="500.7373">disApprovedPost()</text><polygon fill="#181818" points="388.5,530.0156,398.5,534.0156,388.5,538.0156,392.5,534.0156" style="stroke:#181818;stroke-width:1.0;"/><line style="stroke:#181818;stroke-width:1.0;" x1="200.5" x2="394.5" y1="534.0156" y2="534.0156"/><text fill="#000000" font-family="sans-serif" font-size="13" lengthAdjust="spacing" textLength="105" x="207.5" y="529.2607">disApprovedPost()</text><polygon fill="#181818" points="588.5,558.5391,598.5,562.5391,588.5,566.5391,592.5,562.5391" style="stroke:#181818;stroke-width:1.0;"/><line style="stroke:#181818;stroke-width:1.0;" x1="400.5" x2="594.5" y1="562.5391" y2="562.5391"/><text fill="#000000" font-family="sans-serif" font-size="13" lengthAdjust="spacing" textLength="105" x="407.5" y="557.7842">disApprovedPost()</text><polygon fill="#181818" points="411.5,594.0625,401.5,598.0625,411.5,602.0625,407.5,598.0625" style="stroke:#181818;stroke-width:1.0;"/><line style="stroke:#181818;stroke-width:1.0;stroke-dasharray:2.0,2.0;" x1="405.5" x2="599.5" y1="598.0625" y2="598.0625"/><text fill="#000000" font-family="sans-serif" font-size="13" lengthAdjust="spacing" textLength="158" x="417.5" y="593.3076">boolean = approvedStatus()</text><polygon fill="#181818" points="211.5,622.5859,201.5,626.5859,211.5,630.5859,207.5,626.5859" style="stroke:#181818;stroke-width:1.0;"/><line style="stroke:#181818;stroke-width:1.0;stroke-dasharray:2.0,2.0;" x1="205.5" x2="399.5" y1="626.5859" y2="626.5859"/><text fill="#000000" font-family="sans-serif" font-size="13" lengthAdjust="spacing" textLength="158" x="217.5" y="621.8311">boolean = approvedStatus()</text><!--MD5=[eae0760c42d0407317ac719b522eeb2c]
@startuml
actor Admin #blue
participant Interface
participant ReviewPosts
database datasource

Admin -> Interface : Admin/staff Credentials
Interface -> datasource : get UserDetailsByEmail()
datasource - ->Interface : Admin/StaffDetails()
datasource - -> ReviewPosts : displayReviewPost()
ReviewPosts - ->Interface : displayReviewPost()
Admin -> Interface : getPostDetailsById(int)
Interface -> ReviewPosts : getPostDetailsById(int)
ReviewPosts -> datasource :  getPostDetailsById(int)
datasource - -> ReviewPosts : Post = getPostDetailsById(int)
ReviewPosts - -> Interface : Post = getPostDetailsById(int)
Admin -> Interface : approvedPost()
Interface -> ReviewPosts : approvedPost(int)
ReviewPosts -> datasource :  approvedPost(int)

alt
Admin -> Interface : disApprovedPost()
Interface -> ReviewPosts : disApprovedPost()
ReviewPosts -> datasource :  disApprovedPost()

end
datasource - -> ReviewPosts : boolean = approvedStatus()
ReviewPosts - -> Interface : boolean = approvedStatus()
@enduml

PlantUML version 1.2022.7(Tue Aug 23 01:01:30 CST 2022)
(GPL source distribution)
Java Runtime: OpenJDK Runtime Environment
JVM: OpenJDK 64-Bit Server VM
Default Encoding: Cp1252
Language: en
Country: US
--></g></svg>