<?xml version="1.0" encoding="UTF-8" standalone="no"?><svg xmlns="http://www.w3.org/2000/svg" xmlns:xlink="http://www.w3.org/1999/xlink" contentStyleType="text/css" height="952px" preserveAspectRatio="none" style="width:1284px;height:952px;background:#FFFFFF;" version="1.1" viewBox="0 0 1284 952" width="1284px" zoomAndPan="magnify"><defs/><g><rect fill="none" height="73.5703" style="stroke:#000000;stroke-width:1.5;" width="927" x="351.5" y="240.2578"/><line style="stroke:#181818;stroke-width:0.5;stroke-dasharray:5.0,5.0;" x1="75" x2="75" y1="80.6406" y2="872.7734"/><line style="stroke:#181818;stroke-width:0.5;stroke-dasharray:5.0,5.0;" x1="395.5" x2="395.5" y1="80.6406" y2="872.7734"/><line style="stroke:#181818;stroke-width:0.5;stroke-dasharray:5.0,5.0;" x1="745.5" x2="745.5" y1="80.6406" y2="872.7734"/><line style="stroke:#181818;stroke-width:0.5;stroke-dasharray:5.0,5.0;" x1="1229.5" x2="1229.5" y1="80.6406" y2="872.7734"/><text fill="#000000" font-family="sans-serif" font-size="14" lengthAdjust="spacing" textLength="134" x="5" y="77.6738">CleaningProfessional</text><ellipse cx="75" cy="13.5" fill="#008000" rx="8" ry="8" style="stroke:#181818;stroke-width:0.5;"/><path d="M75,21.5 L75,48.5 M62,29.5 L88,29.5 M75,48.5 L62,63.5 M75,48.5 L88,63.5 " fill="none" style="stroke:#181818;stroke-width:0.5;"/><text fill="#000000" font-family="sans-serif" font-size="14" lengthAdjust="spacing" textLength="134" x="5" y="884.4473">CleaningProfessional</text><ellipse cx="75" cy="895.9141" fill="#008000" rx="8" ry="8" style="stroke:#181818;stroke-width:0.5;"/><path d="M75,903.9141 L75,930.9141 M62,911.9141 L88,911.9141 M75,930.9141 L62,945.9141 M75,930.9141 L88,945.9141 " fill="none" style="stroke:#181818;stroke-width:0.5;"/><rect fill="#E2E2F0" height="29.6406" rx="2.5" ry="2.5" style="stroke:#181818;stroke-width:0.5;" width="69" x="361.5" y="50"/><text fill="#000000" font-family="sans-serif" font-size="14" lengthAdjust="spacing" textLength="55" x="368.5" y="69.6738">Interface</text><rect fill="#E2E2F0" height="29.6406" rx="2.5" ry="2.5" style="stroke:#181818;stroke-width:0.5;" width="69" x="361.5" y="871.7734"/><text fill="#000000" font-family="sans-serif" font-size="14" lengthAdjust="spacing" textLength="55" x="368.5" y="891.4473">Interface</text><rect fill="#E2E2F0" height="29.6406" rx="2.5" ry="2.5" style="stroke:#181818;stroke-width:0.5;" width="285" x="603.5" y="50"/><text fill="#000000" font-family="sans-serif" font-size="14" lengthAdjust="spacing" textLength="271" x="610.5" y="69.6738">CleaningProfessionalManageAppointments</text><rect fill="#E2E2F0" height="29.6406" rx="2.5" ry="2.5" style="stroke:#181818;stroke-width:0.5;" width="285" x="603.5" y="871.7734"/><text fill="#000000" font-family="sans-serif" font-size="14" lengthAdjust="spacing" textLength="271" x="610.5" y="891.4473">CleaningProfessionalManageAppointments</text><text fill="#000000" font-family="sans-serif" font-size="14" lengthAdjust="spacing" textLength="71" x="1191.5" y="77.6738">datasource</text><path d="M1212,29 C1212,19 1230,19 1230,19 C1230,19 1248,19 1248,29 L1248,55 C1248,65 1230,65 1230,65 C1230,65 1212,65 1212,55 L1212,29 " fill="#E2E2F0" style="stroke:#181818;stroke-width:1.5;"/><path d="M1212,29 C1212,39 1230,39 1230,39 C1230,39 1248,39 1248,29 " fill="none" style="stroke:#181818;stroke-width:1.5;"/><text fill="#000000" font-family="sans-serif" font-size="14" lengthAdjust="spacing" textLength="71" x="1191.5" y="884.4473">datasource</text><path d="M1212,897.4141 C1212,887.4141 1230,887.4141 1230,887.4141 C1230,887.4141 1248,887.4141 1248,897.4141 L1248,923.4141 C1248,933.4141 1230,933.4141 1230,933.4141 C1230,933.4141 1212,933.4141 1212,923.4141 L1212,897.4141 " fill="#E2E2F0" style="stroke:#181818;stroke-width:1.5;"/><path d="M1212,897.4141 C1212,907.4141 1230,907.4141 1230,907.4141 C1230,907.4141 1248,907.4141 1248,897.4141 " fill="none" style="stroke:#181818;stroke-width:1.5;"/><polygon fill="#181818" points="384,107.1641,394,111.1641,384,115.1641,388,111.1641" style="stroke:#181818;stroke-width:1.0;"/><line style="stroke:#181818;stroke-width:1.0;" x1="75" x2="390" y1="111.1641" y2="111.1641"/><text fill="#000000" font-family="sans-serif" font-size="13" lengthAdjust="spacing" textLength="87" x="82" y="106.4092">loginWithEmail</text><polygon fill="#181818" points="734,135.6875,744,139.6875,734,143.6875,738,139.6875" style="stroke:#181818;stroke-width:1.0;"/><line style="stroke:#181818;stroke-width:1.0;" x1="396" x2="740" y1="139.6875" y2="139.6875"/><text fill="#000000" font-family="sans-serif" font-size="13" lengthAdjust="spacing" textLength="273" x="403" y="134.9326">CleaningProfessionalGetDetailsByEmail(String)</text><polygon fill="#181818" points="1218,164.2109,1228,168.2109,1218,172.2109,1222,168.2109" style="stroke:#181818;stroke-width:1.0;"/><line style="stroke:#181818;stroke-width:1.0;" x1="746" x2="1224" y1="168.2109" y2="168.2109"/><text fill="#000000" font-family="sans-serif" font-size="13" lengthAdjust="spacing" textLength="273" x="753" y="163.4561">CleaningProfessionalGetDetailsByEmail(String)</text><polygon fill="#181818" points="757,192.7344,747,196.7344,757,200.7344,753,196.7344" style="stroke:#181818;stroke-width:1.0;"/><line style="stroke:#181818;stroke-width:1.0;stroke-dasharray:2.0,2.0;" x1="751" x2="1229" y1="196.7344" y2="196.7344"/><text fill="#000000" font-family="sans-serif" font-size="13" lengthAdjust="spacing" textLength="410" x="763" y="191.9795">CleaningProfessional = CleaningProfessionalGetDetailsByEmail(String)</text><polygon fill="#181818" points="1218,221.2578,1228,225.2578,1218,229.2578,1222,225.2578" style="stroke:#181818;stroke-width:1.0;"/><line style="stroke:#181818;stroke-width:1.0;" x1="746" x2="1224" y1="225.2578" y2="225.2578"/><text fill="#000000" font-family="sans-serif" font-size="13" lengthAdjust="spacing" textLength="364" x="753" y="220.5029">getAppointmentsByCleaningProfessional(CleaningProfessional)</text><path d="M351.5,240.2578 L412.5,240.2578 L412.5,246.7813 L402.5,256.7813 L351.5,256.7813 L351.5,240.2578 " fill="#EEEEEE" style="stroke:#000000;stroke-width:1.5;"/><rect fill="none" height="73.5703" style="stroke:#000000;stroke-width:1.5;" width="927" x="351.5" y="240.2578"/><text fill="#000000" font-family="sans-serif" font-size="13" font-weight="bold" lengthAdjust="spacing" textLength="16" x="366.5" y="253.0264">alt</text><text fill="#000000" font-family="sans-serif" font-size="11" font-weight="bold" lengthAdjust="spacing" textLength="152" x="427.5" y="252.2158">[No Booking/Appointments]</text><polygon fill="#181818" points="757,273.3047,747,277.3047,757,281.3047,753,277.3047" style="stroke:#181818;stroke-width:1.0;"/><line style="stroke:#181818;stroke-width:1.0;stroke-dasharray:2.0,2.0;" x1="751" x2="1229" y1="277.3047" y2="277.3047"/><text fill="#000000" font-family="sans-serif" font-size="13" lengthAdjust="spacing" textLength="387" x="763" y="272.5498">0 = getAppointmentsByCleaningProfessional(CleaningProfessional)</text><polygon fill="#181818" points="407,301.8281,397,305.8281,407,309.8281,403,305.8281" style="stroke:#181818;stroke-width:1.0;"/><line style="stroke:#181818;stroke-width:1.0;stroke-dasharray:2.0,2.0;" x1="401" x2="745" y1="305.8281" y2="305.8281"/><text fill="#000000" font-family="sans-serif" font-size="13" lengthAdjust="spacing" textLength="235" x="413" y="301.0732">display none on upcoming Appointments</text><polygon fill="#181818" points="757,337.3516,747,341.3516,757,345.3516,753,341.3516" style="stroke:#181818;stroke-width:1.0;"/><line style="stroke:#181818;stroke-width:1.0;stroke-dasharray:2.0,2.0;" x1="751" x2="1229" y1="341.3516" y2="341.3516"/><text fill="#000000" font-family="sans-serif" font-size="13" lengthAdjust="spacing" textLength="460" x="763" y="336.5967">Appointments = getAppointmentsByCleaningProfessional(CleaningProfessional)</text><polygon fill="#181818" points="407,365.875,397,369.875,407,373.875,403,369.875" style="stroke:#181818;stroke-width:1.0;"/><line style="stroke:#181818;stroke-width:1.0;stroke-dasharray:2.0,2.0;" x1="401" x2="745" y1="369.875" y2="369.875"/><text fill="#000000" font-family="sans-serif" font-size="13" lengthAdjust="spacing" textLength="299" x="413" y="365.1201">display Upcoming/Previous/Cancelled appointments</text><polygon fill="#181818" points="384,394.3984,394,398.3984,384,402.3984,388,398.3984" style="stroke:#181818;stroke-width:1.0;"/><line style="stroke:#181818;stroke-width:1.0;" x1="75" x2="390" y1="398.3984" y2="398.3984"/><text fill="#000000" font-family="sans-serif" font-size="13" lengthAdjust="spacing" textLength="111" x="82" y="393.6436">viewBookingDetails</text><polygon fill="#181818" points="734,422.9219,744,426.9219,734,430.9219,738,426.9219" style="stroke:#181818;stroke-width:1.0;"/><line style="stroke:#181818;stroke-width:1.0;" x1="396" x2="740" y1="426.9219" y2="426.9219"/><text fill="#000000" font-family="sans-serif" font-size="13" lengthAdjust="spacing" textLength="133" x="403" y="422.167">viewBookingDetails(int)</text><polygon fill="#181818" points="1218,451.4453,1228,455.4453,1218,459.4453,1222,455.4453" style="stroke:#181818;stroke-width:1.0;"/><line style="stroke:#181818;stroke-width:1.0;" x1="746" x2="1224" y1="455.4453" y2="455.4453"/><text fill="#000000" font-family="sans-serif" font-size="13" lengthAdjust="spacing" textLength="133" x="753" y="450.6904">viewBookingDetails(int)</text><polygon fill="#181818" points="757,479.9688,747,483.9688,757,487.9688,753,483.9688" style="stroke:#181818;stroke-width:1.0;"/><line style="stroke:#181818;stroke-width:1.0;stroke-dasharray:2.0,2.0;" x1="751" x2="1229" y1="483.9688" y2="483.9688"/><text fill="#000000" font-family="sans-serif" font-size="13" lengthAdjust="spacing" textLength="196" x="763" y="479.2139">Booking = viewBookingDetails(int)</text><polygon fill="#181818" points="407,508.4922,397,512.4922,407,516.4922,403,512.4922" style="stroke:#181818;stroke-width:1.0;"/><line style="stroke:#181818;stroke-width:1.0;stroke-dasharray:2.0,2.0;" x1="401" x2="745" y1="512.4922" y2="512.4922"/><text fill="#000000" font-family="sans-serif" font-size="13" lengthAdjust="spacing" textLength="196" x="413" y="507.7373">Booking = viewBookingDetails(int)</text><polygon fill="#181818" points="384,537.0156,394,541.0156,384,545.0156,388,541.0156" style="stroke:#181818;stroke-width:1.0;"/><line style="stroke:#181818;stroke-width:1.0;" x1="75" x2="390" y1="541.0156" y2="541.0156"/><text fill="#000000" font-family="sans-serif" font-size="13" lengthAdjust="spacing" textLength="221" x="82" y="536.2607">rateMyCleaningServiceByAppointment</text><polygon fill="#181818" points="734,565.5391,744,569.5391,734,573.5391,738,569.5391" style="stroke:#181818;stroke-width:1.0;"/><line style="stroke:#181818;stroke-width:1.0;" x1="396" x2="740" y1="569.5391" y2="569.5391"/><text fill="#000000" font-family="sans-serif" font-size="13" lengthAdjust="spacing" textLength="243" x="403" y="564.7842">rateMyCleaningServiceByAppointment(int)</text><polygon fill="#181818" points="1218,594.0625,1228,598.0625,1218,602.0625,1222,598.0625" style="stroke:#181818;stroke-width:1.0;"/><line style="stroke:#181818;stroke-width:1.0;" x1="746" x2="1224" y1="598.0625" y2="598.0625"/><text fill="#000000" font-family="sans-serif" font-size="13" lengthAdjust="spacing" textLength="243" x="753" y="593.3076">rateMyCleaningServiceByAppointment(int)</text><polygon fill="#181818" points="757,622.5859,747,626.5859,757,630.5859,753,626.5859" style="stroke:#181818;stroke-width:1.0;"/><line style="stroke:#181818;stroke-width:1.0;stroke-dasharray:2.0,2.0;" x1="751" x2="1229" y1="626.5859" y2="626.5859"/><text fill="#000000" font-family="sans-serif" font-size="13" lengthAdjust="spacing" textLength="304" x="763" y="621.8311">boolean = rateMyCleaningServiceByAppointment(int)</text><polygon fill="#181818" points="407,651.1094,397,655.1094,407,659.1094,403,655.1094" style="stroke:#181818;stroke-width:1.0;"/><line style="stroke:#181818;stroke-width:1.0;stroke-dasharray:2.0,2.0;" x1="401" x2="745" y1="655.1094" y2="655.1094"/><text fill="#000000" font-family="sans-serif" font-size="13" lengthAdjust="spacing" textLength="189" x="413" y="650.3545">displayRateByAppointmentId(int)</text><polygon fill="#181818" points="384,679.6328,394,683.6328,384,687.6328,388,683.6328" style="stroke:#181818;stroke-width:1.0;"/><line style="stroke:#181818;stroke-width:1.0;" x1="75" x2="390" y1="683.6328" y2="683.6328"/><text fill="#000000" font-family="sans-serif" font-size="13" lengthAdjust="spacing" textLength="297" x="82" y="678.8779">postAReviewToMyCleaningServiceByAppointmentId</text><polygon fill="#181818" points="734,708.1563,744,712.1563,734,716.1563,738,712.1563" style="stroke:#181818;stroke-width:1.0;"/><line style="stroke:#181818;stroke-width:1.0;" x1="396" x2="740" y1="712.1563" y2="712.1563"/><text fill="#000000" font-family="sans-serif" font-size="13" lengthAdjust="spacing" textLength="326" x="403" y="707.4014">ppostAReviewToMyCleaningServiceByAppointmentId(int)</text><polygon fill="#181818" points="1218,736.6797,1228,740.6797,1218,744.6797,1222,740.6797" style="stroke:#181818;stroke-width:1.0;"/><line style="stroke:#181818;stroke-width:1.0;" x1="746" x2="1224" y1="740.6797" y2="740.6797"/><text fill="#000000" font-family="sans-serif" font-size="13" lengthAdjust="spacing" textLength="319" x="753" y="735.9248">postAReviewToMyCleaningServiceByAppointmentId(int)</text><polygon fill="#181818" points="757,765.2031,747,769.2031,757,773.2031,753,769.2031" style="stroke:#181818;stroke-width:1.0;"/><line style="stroke:#181818;stroke-width:1.0;stroke-dasharray:2.0,2.0;" x1="751" x2="1229" y1="769.2031" y2="769.2031"/><text fill="#000000" font-family="sans-serif" font-size="13" lengthAdjust="spacing" textLength="314" x="763" y="764.4482">boolean = displayReviewsByIdAndIsOkay(int, boolean)</text><polygon fill="#181818" points="407,793.7266,397,797.7266,407,801.7266,403,797.7266" style="stroke:#181818;stroke-width:1.0;"/><line style="stroke:#181818;stroke-width:1.0;stroke-dasharray:2.0,2.0;" x1="401" x2="745" y1="797.7266" y2="797.7266"/><text fill="#000000" font-family="sans-serif" font-size="13" lengthAdjust="spacing" textLength="314" x="413" y="792.9717">boolean = displayReviewsByIdAndIsOkay(int, boolean)</text><polygon fill="#181818" points="757,822.25,747,826.25,757,830.25,753,826.25" style="stroke:#181818;stroke-width:1.0;"/><line style="stroke:#181818;stroke-width:1.0;" x1="751" x2="1229" y1="826.25" y2="826.25"/><text fill="#000000" font-family="sans-serif" font-size="13" lengthAdjust="spacing" textLength="159" x="763" y="821.4951">Notifications(Appointments)</text><polygon fill="#181818" points="407,850.7734,397,854.7734,407,858.7734,403,854.7734" style="stroke:#181818;stroke-width:1.0;"/><line style="stroke:#181818;stroke-width:1.0;stroke-dasharray:2.0,2.0;" x1="401" x2="745" y1="854.7734" y2="854.7734"/><text fill="#000000" font-family="sans-serif" font-size="13" lengthAdjust="spacing" textLength="159" x="413" y="850.0186">Notifications(Appointments)</text><!--MD5=[754bc71fd45dd69619f37019c278fc83]
@startuml
actor CleaningProfessional #green
participant Interface
participant CleaningProfessionalManageAppointments
database datasource

CleaningProfessional -> Interface : loginWithEmail
Interface -> CleaningProfessionalManageAppointments : CleaningProfessionalGetDetailsByEmail(String)
CleaningProfessionalManageAppointments -> datasource : CleaningProfessionalGetDetailsByEmail(String)
datasource - -> CleaningProfessionalManageAppointments: CleaningProfessional = CleaningProfessionalGetDetailsByEmail(String)
CleaningProfessionalManageAppointments -> datasource : getAppointmentsByCleaningProfessional(CleaningProfessional)

alt No Booking/Appointments
datasource - -> CleaningProfessionalManageAppointments : 0 = getAppointmentsByCleaningProfessional(CleaningProfessional)
CleaningProfessionalManageAppointments - -> Interface : display none on upcoming Appointments
end

datasource - -> CleaningProfessionalManageAppointments : Appointments = getAppointmentsByCleaningProfessional(CleaningProfessional)
CleaningProfessionalManageAppointments - -> Interface :display Upcoming/Previous/Cancelled appointments
CleaningProfessional -> Interface : viewBookingDetails
Interface -> CleaningProfessionalManageAppointments : viewBookingDetails(int)
CleaningProfessionalManageAppointments -> datasource : viewBookingDetails(int)
datasource - -> CleaningProfessionalManageAppointments : Booking = viewBookingDetails(int)
CleaningProfessionalManageAppointments - -> Interface :  Booking = viewBookingDetails(int)

CleaningProfessional -> Interface : rateMyCleaningServiceByAppointment
Interface -> CleaningProfessionalManageAppointments : rateMyCleaningServiceByAppointment(int)
CleaningProfessionalManageAppointments -> datasource : rateMyCleaningServiceByAppointment(int)
datasource - -> CleaningProfessionalManageAppointments : boolean = rateMyCleaningServiceByAppointment(int)
CleaningProfessionalManageAppointments - -> Interface : displayRateByAppointmentId(int)

CleaningProfessional -> Interface : postAReviewToMyCleaningServiceByAppointmentId
Interface -> CleaningProfessionalManageAppointments : ppostAReviewToMyCleaningServiceByAppointmentId(int)
CleaningProfessionalManageAppointments -> datasource : postAReviewToMyCleaningServiceByAppointmentId(int)
datasource - -> CleaningProfessionalManageAppointments : boolean = displayReviewsByIdAndIsOkay(int, boolean)
CleaningProfessionalManageAppointments - -> Interface : boolean = displayReviewsByIdAndIsOkay(int, boolean)
datasource -> CleaningProfessionalManageAppointments : Notifications(Appointments)
CleaningProfessionalManageAppointments - -> Interface : Notifications(Appointments)


@enduml

PlantUML version 1.2022.7(Tue Aug 23 01:01:30 CST 2022)
(GPL source distribution)
Java Runtime: OpenJDK Runtime Environment
JVM: OpenJDK 64-Bit Server VM
Default Encoding: Cp1252
Language: en
Country: US
--></g></svg>