<?xml version="1.0" encoding="UTF-8" standalone="no"?><svg xmlns="http://www.w3.org/2000/svg" xmlns:xlink="http://www.w3.org/1999/xlink" contentStyleType="text/css" height="1494px" preserveAspectRatio="none" style="width:809px;height:1494px;background:#FFFFFF;" version="1.1" viewBox="0 0 809 1494" width="809px" zoomAndPan="magnify"><defs/><g><rect fill="none" height="73.5703" style="stroke:#000000;stroke-width:1.5;" width="582" x="221.5" y="439.9219"/><line style="stroke:#181818;stroke-width:0.5;stroke-dasharray:5.0,5.0;" x1="26" x2="26" y1="80.6406" y2="1414.7188"/><line style="stroke:#181818;stroke-width:0.5;stroke-dasharray:5.0,5.0;" x1="265.5" x2="265.5" y1="80.6406" y2="1414.7188"/><line style="stroke:#181818;stroke-width:0.5;stroke-dasharray:5.0,5.0;" x1="485" x2="485" y1="80.6406" y2="1414.7188"/><line style="stroke:#181818;stroke-width:0.5;stroke-dasharray:5.0,5.0;" x1="754.5" x2="754.5" y1="80.6406" y2="1414.7188"/><text fill="#000000" font-family="sans-serif" font-size="14" lengthAdjust="spacing" textLength="36" x="5" y="77.6738">Client</text><ellipse cx="26" cy="13.5" fill="#FF0000" rx="8" ry="8" style="stroke:#181818;stroke-width:0.5;"/><path d="M26,21.5 L26,48.5 M13,29.5 L39,29.5 M26,48.5 L13,63.5 M26,48.5 L39,63.5 " fill="none" style="stroke:#181818;stroke-width:0.5;"/><text fill="#000000" font-family="sans-serif" font-size="14" lengthAdjust="spacing" textLength="36" x="5" y="1426.3926">Client</text><ellipse cx="26" cy="1437.8594" fill="#FF0000" rx="8" ry="8" style="stroke:#181818;stroke-width:0.5;"/><path d="M26,1445.8594 L26,1472.8594 M13,1453.8594 L39,1453.8594 M26,1472.8594 L13,1487.8594 M26,1472.8594 L39,1487.8594 " fill="none" style="stroke:#181818;stroke-width:0.5;"/><rect fill="#E2E2F0" height="29.6406" rx="2.5" ry="2.5" style="stroke:#181818;stroke-width:0.5;" width="69" x="231.5" y="50"/><text fill="#000000" font-family="sans-serif" font-size="14" lengthAdjust="spacing" textLength="55" x="238.5" y="69.6738">Interface</text><rect fill="#E2E2F0" height="29.6406" rx="2.5" ry="2.5" style="stroke:#181818;stroke-width:0.5;" width="69" x="231.5" y="1413.7188"/><text fill="#000000" font-family="sans-serif" font-size="14" lengthAdjust="spacing" textLength="55" x="238.5" y="1433.3926">Interface</text><rect fill="#E2E2F0" height="29.6406" rx="2.5" ry="2.5" style="stroke:#181818;stroke-width:0.5;" width="126" x="422" y="50"/><text fill="#000000" font-family="sans-serif" font-size="14" lengthAdjust="spacing" textLength="112" x="429" y="69.6738">ClientAddBooking</text><rect fill="#E2E2F0" height="29.6406" rx="2.5" ry="2.5" style="stroke:#181818;stroke-width:0.5;" width="126" x="422" y="1413.7188"/><text fill="#000000" font-family="sans-serif" font-size="14" lengthAdjust="spacing" textLength="112" x="429" y="1433.3926">ClientAddBooking</text><text fill="#000000" font-family="sans-serif" font-size="14" lengthAdjust="spacing" textLength="71" x="716.5" y="77.6738">datasource</text><path d="M737,29 C737,19 755,19 755,19 C755,19 773,19 773,29 L773,55 C773,65 755,65 755,65 C755,65 737,65 737,55 L737,29 " fill="#E2E2F0" style="stroke:#181818;stroke-width:1.5;"/><path d="M737,29 C737,39 755,39 755,39 C755,39 773,39 773,29 " fill="none" style="stroke:#181818;stroke-width:1.5;"/><text fill="#000000" font-family="sans-serif" font-size="14" lengthAdjust="spacing" textLength="71" x="716.5" y="1426.3926">datasource</text><path d="M737,1439.3594 C737,1429.3594 755,1429.3594 755,1429.3594 C755,1429.3594 773,1429.3594 773,1439.3594 L773,1465.3594 C773,1475.3594 755,1475.3594 755,1475.3594 C755,1475.3594 737,1475.3594 737,1465.3594 L737,1439.3594 " fill="#E2E2F0" style="stroke:#181818;stroke-width:1.5;"/><path d="M737,1439.3594 C737,1449.3594 755,1449.3594 755,1449.3594 C755,1449.3594 773,1449.3594 773,1439.3594 " fill="none" style="stroke:#181818;stroke-width:1.5;"/><polygon fill="#181818" points="496,107.1641,486,111.1641,496,115.1641,492,111.1641" style="stroke:#181818;stroke-width:1.0;"/><line style="stroke:#181818;stroke-width:1.0;stroke-dasharray:2.0,2.0;" x1="490" x2="754" y1="111.1641" y2="111.1641"/><text fill="#000000" font-family="sans-serif" font-size="13" lengthAdjust="spacing" textLength="157" x="502" y="106.4092">displayEachServiceAsTabs</text><polygon fill="#181818" points="496,135.6875,486,139.6875,496,143.6875,492,139.6875" style="stroke:#181818;stroke-width:1.0;"/><line style="stroke:#181818;stroke-width:1.0;stroke-dasharray:2.0,2.0;" x1="490" x2="754" y1="139.6875" y2="139.6875"/><text fill="#000000" font-family="sans-serif" font-size="13" lengthAdjust="spacing" textLength="118" x="502" y="134.9326">displayBookingForm</text><polygon fill="#181818" points="496,164.2109,486,168.2109,496,172.2109,492,168.2109" style="stroke:#181818;stroke-width:1.0;"/><line style="stroke:#181818;stroke-width:1.0;stroke-dasharray:2.0,2.0;" x1="490" x2="754" y1="168.2109" y2="168.2109"/><text fill="#000000" font-family="sans-serif" font-size="13" lengthAdjust="spacing" textLength="88" x="502" y="163.4561">displayAddsOn</text><polygon fill="#181818" points="277,192.7344,267,196.7344,277,200.7344,273,196.7344" style="stroke:#181818;stroke-width:1.0;"/><line style="stroke:#181818;stroke-width:1.0;stroke-dasharray:2.0,2.0;" x1="271" x2="484" y1="196.7344" y2="196.7344"/><text fill="#000000" font-family="sans-serif" font-size="13" lengthAdjust="spacing" textLength="157" x="283" y="191.9795">displayEachServiceAsTabs</text><polygon fill="#181818" points="277,221.2578,267,225.2578,277,229.2578,273,225.2578" style="stroke:#181818;stroke-width:1.0;"/><line style="stroke:#181818;stroke-width:1.0;stroke-dasharray:2.0,2.0;" x1="271" x2="484" y1="225.2578" y2="225.2578"/><text fill="#000000" font-family="sans-serif" font-size="13" lengthAdjust="spacing" textLength="118" x="283" y="220.5029">displayBookingForm</text><polygon fill="#181818" points="277,249.7813,267,253.7813,277,257.7813,273,253.7813" style="stroke:#181818;stroke-width:1.0;"/><line style="stroke:#181818;stroke-width:1.0;stroke-dasharray:2.0,2.0;" x1="271" x2="484" y1="253.7813" y2="253.7813"/><text fill="#000000" font-family="sans-serif" font-size="13" lengthAdjust="spacing" textLength="88" x="283" y="249.0264">displayAddsOn</text><polygon fill="#181818" points="254,278.3047,264,282.3047,254,286.3047,258,282.3047" style="stroke:#181818;stroke-width:1.0;"/><line style="stroke:#181818;stroke-width:1.0;" x1="26" x2="260" y1="282.3047" y2="282.3047"/><text fill="#000000" font-family="sans-serif" font-size="13" lengthAdjust="spacing" textLength="79" x="33" y="277.5498">SelectService</text><polygon fill="#181818" points="254,306.8281,264,310.8281,254,314.8281,258,310.8281" style="stroke:#181818;stroke-width:1.0;"/><line style="stroke:#181818;stroke-width:1.0;" x1="26" x2="260" y1="310.8281" y2="310.8281"/><text fill="#000000" font-family="sans-serif" font-size="13" lengthAdjust="spacing" textLength="166" x="33" y="306.0732">getCustomerByName(String)</text><polygon fill="#181818" points="473,335.3516,483,339.3516,473,343.3516,477,339.3516" style="stroke:#181818;stroke-width:1.0;"/><line style="stroke:#181818;stroke-width:1.0;" x1="266" x2="479" y1="339.3516" y2="339.3516"/><text fill="#000000" font-family="sans-serif" font-size="13" lengthAdjust="spacing" textLength="166" x="273" y="334.5967">getCustomerByName(String)</text><polygon fill="#181818" points="743,363.875,753,367.875,743,371.875,747,367.875" style="stroke:#181818;stroke-width:1.0;"/><line style="stroke:#181818;stroke-width:1.0;" x1="485" x2="749" y1="367.875" y2="367.875"/><text fill="#000000" font-family="sans-serif" font-size="13" lengthAdjust="spacing" textLength="166" x="492" y="363.1201">getCustomerByName(String)</text><polygon fill="#181818" points="496,392.3984,486,396.3984,496,400.3984,492,396.3984" style="stroke:#181818;stroke-width:1.0;"/><line style="stroke:#181818;stroke-width:1.0;stroke-dasharray:2.0,2.0;" x1="490" x2="754" y1="396.3984" y2="396.3984"/><text fill="#000000" font-family="sans-serif" font-size="13" lengthAdjust="spacing" textLength="196" x="502" y="391.6436">int = getCustomerByName(String)</text><polygon fill="#181818" points="743,420.9219,753,424.9219,743,428.9219,747,424.9219" style="stroke:#181818;stroke-width:1.0;"/><line style="stroke:#181818;stroke-width:1.0;" x1="485" x2="749" y1="424.9219" y2="424.9219"/><text fill="#000000" font-family="sans-serif" font-size="13" lengthAdjust="spacing" textLength="124" x="492" y="420.167">getCustomerByID(int)</text><path d="M221.5,439.9219 L282.5,439.9219 L282.5,446.4453 L272.5,456.4453 L221.5,456.4453 L221.5,439.9219 " fill="#EEEEEE" style="stroke:#000000;stroke-width:1.5;"/><rect fill="none" height="73.5703" style="stroke:#000000;stroke-width:1.5;" width="582" x="221.5" y="439.9219"/><text fill="#000000" font-family="sans-serif" font-size="13" font-weight="bold" lengthAdjust="spacing" textLength="16" x="236.5" y="452.6904">alt</text><text fill="#000000" font-family="sans-serif" font-size="11" font-weight="bold" lengthAdjust="spacing" textLength="113" x="297.5" y="451.8799">[invalid customer ID]</text><polygon fill="#181818" points="496,472.9688,486,476.9688,496,480.9688,492,476.9688" style="stroke:#181818;stroke-width:1.0;"/><line style="stroke:#181818;stroke-width:1.0;stroke-dasharray:2.0,2.0;" x1="490" x2="754" y1="476.9688" y2="476.9688"/><text fill="#000000" font-family="sans-serif" font-size="13" lengthAdjust="spacing" textLength="147" x="502" y="472.2139">0 = getCustomerByID(int)</text><polygon fill="#181818" points="277,501.4922,267,505.4922,277,509.4922,273,505.4922" style="stroke:#181818;stroke-width:1.0;"/><line style="stroke:#181818;stroke-width:1.0;stroke-dasharray:2.0,2.0;" x1="271" x2="484" y1="505.4922" y2="505.4922"/><text fill="#000000" font-family="sans-serif" font-size="13" lengthAdjust="spacing" textLength="69" x="283" y="500.7373">displayError</text><polygon fill="#181818" points="496,537.0156,486,541.0156,496,545.0156,492,541.0156" style="stroke:#181818;stroke-width:1.0;"/><line style="stroke:#181818;stroke-width:1.0;stroke-dasharray:2.0,2.0;" x1="490" x2="754" y1="541.0156" y2="541.0156"/><text fill="#000000" font-family="sans-serif" font-size="13" lengthAdjust="spacing" textLength="154" x="502" y="536.2607">int = getCustomerByID(int)</text><polygon fill="#181818" points="277,565.5391,267,569.5391,277,573.5391,273,569.5391" style="stroke:#181818;stroke-width:1.0;"/><line style="stroke:#181818;stroke-width:1.0;stroke-dasharray:2.0,2.0;" x1="271" x2="484" y1="569.5391" y2="569.5391"/><text fill="#000000" font-family="sans-serif" font-size="13" lengthAdjust="spacing" textLength="114" x="283" y="564.7842">displayClientDetails</text><polygon fill="#181818" points="254,594.0625,264,598.0625,254,602.0625,258,598.0625" style="stroke:#181818;stroke-width:1.0;"/><line style="stroke:#181818;stroke-width:1.0;" x1="26" x2="260" y1="598.0625" y2="598.0625"/><text fill="#000000" font-family="sans-serif" font-size="13" lengthAdjust="spacing" textLength="216" x="33" y="593.3076">selectServiceAddOnForEachService()</text><polygon fill="#181818" points="743,622.5859,753,626.5859,743,630.5859,747,626.5859" style="stroke:#181818;stroke-width:1.0;"/><line style="stroke:#181818;stroke-width:1.0;" x1="266" x2="749" y1="626.5859" y2="626.5859"/><text fill="#000000" font-family="sans-serif" font-size="13" lengthAdjust="spacing" textLength="216" x="273" y="621.8311">selectServiceAddOnForEachService()</text><polygon fill="#181818" points="496,651.1094,486,655.1094,496,659.1094,492,655.1094" style="stroke:#181818;stroke-width:1.0;"/><line style="stroke:#181818;stroke-width:1.0;stroke-dasharray:2.0,2.0;" x1="490" x2="754" y1="655.1094" y2="655.1094"/><text fill="#000000" font-family="sans-serif" font-size="13" lengthAdjust="spacing" textLength="246" x="502" y="650.3545">int = selectServiceAddOnForEachService()</text><polygon fill="#181818" points="277,679.6328,267,683.6328,277,687.6328,273,683.6328" style="stroke:#181818;stroke-width:1.0;"/><line style="stroke:#181818;stroke-width:1.0;stroke-dasharray:2.0,2.0;" x1="271" x2="484" y1="683.6328" y2="683.6328"/><text fill="#000000" font-family="sans-serif" font-size="13" lengthAdjust="spacing" textLength="124" x="283" y="678.8779">computePayment(int)</text><polygon fill="#181818" points="277,708.1563,267,712.1563,277,716.1563,273,712.1563" style="stroke:#181818;stroke-width:1.0;"/><line style="stroke:#181818;stroke-width:1.0;stroke-dasharray:2.0,2.0;" x1="271" x2="484" y1="712.1563" y2="712.1563"/><text fill="#000000" font-family="sans-serif" font-size="13" lengthAdjust="spacing" textLength="153" x="283" y="707.4014">true = isPriceValid(double)</text><polygon fill="#181818" points="254,736.6797,264,740.6797,254,744.6797,258,740.6797" style="stroke:#181818;stroke-width:1.0;"/><line style="stroke:#181818;stroke-width:1.0;" x1="26" x2="260" y1="740.6797" y2="740.6797"/><text fill="#000000" font-family="sans-serif" font-size="13" lengthAdjust="spacing" textLength="63" x="33" y="735.9248">adjustTime</text><polygon fill="#181818" points="473,765.2031,483,769.2031,473,773.2031,477,769.2031" style="stroke:#181818;stroke-width:1.0;"/><line style="stroke:#181818;stroke-width:1.0;" x1="266" x2="479" y1="769.2031" y2="769.2031"/><text fill="#000000" font-family="sans-serif" font-size="13" lengthAdjust="spacing" textLength="195" x="273" y="764.4482">getDateTimeFromDateTimePicker</text><polygon fill="#181818" points="277,793.7266,267,797.7266,277,801.7266,273,797.7266" style="stroke:#181818;stroke-width:1.0;"/><line style="stroke:#181818;stroke-width:1.0;stroke-dasharray:2.0,2.0;" x1="271" x2="484" y1="797.7266" y2="797.7266"/><text fill="#000000" font-family="sans-serif" font-size="13" lengthAdjust="spacing" textLength="168" x="283" y="792.9717">true = isTimeValid(DateTime)</text><polygon fill="#181818" points="254,822.25,264,826.25,254,830.25,258,826.25" style="stroke:#181818;stroke-width:1.0;"/><line style="stroke:#181818;stroke-width:1.0;" x1="26" x2="260" y1="826.25" y2="826.25"/><text fill="#000000" font-family="sans-serif" font-size="13" lengthAdjust="spacing" textLength="88" x="33" y="821.4951">setPriorityLevel</text><polygon fill="#181818" points="473,850.7734,483,854.7734,473,858.7734,477,854.7734" style="stroke:#181818;stroke-width:1.0;"/><line style="stroke:#181818;stroke-width:1.0;" x1="266" x2="479" y1="854.7734" y2="854.7734"/><text fill="#000000" font-family="sans-serif" font-size="13" lengthAdjust="spacing" textLength="130" x="273" y="850.0186">getPriorityLevel(String)</text><polygon fill="#181818" points="277,879.2969,267,883.2969,277,887.2969,273,883.2969" style="stroke:#181818;stroke-width:1.0;"/><line style="stroke:#181818;stroke-width:1.0;stroke-dasharray:2.0,2.0;" x1="271" x2="484" y1="883.2969" y2="883.2969"/><text fill="#000000" font-family="sans-serif" font-size="13" lengthAdjust="spacing" textLength="180" x="283" y="878.542">String = getPriorityLevel(String)</text><polygon fill="#181818" points="254,907.8203,264,911.8203,254,915.8203,258,911.8203" style="stroke:#181818;stroke-width:1.0;"/><line style="stroke:#181818;stroke-width:1.0;" x1="26" x2="260" y1="911.8203" y2="911.8203"/><text fill="#000000" font-family="sans-serif" font-size="13" lengthAdjust="spacing" textLength="79" x="33" y="907.0654">setFrequency</text><polygon fill="#181818" points="473,936.3438,483,940.3438,473,944.3438,477,940.3438" style="stroke:#181818;stroke-width:1.0;"/><line style="stroke:#181818;stroke-width:1.0;" x1="266" x2="479" y1="940.3438" y2="940.3438"/><text fill="#000000" font-family="sans-serif" font-size="13" lengthAdjust="spacing" textLength="121" x="273" y="935.5889">getFrequency(String)</text><polygon fill="#181818" points="277,964.8672,267,968.8672,277,972.8672,273,968.8672" style="stroke:#181818;stroke-width:1.0;"/><line style="stroke:#181818;stroke-width:1.0;stroke-dasharray:2.0,2.0;" x1="271" x2="484" y1="968.8672" y2="968.8672"/><text fill="#000000" font-family="sans-serif" font-size="13" lengthAdjust="spacing" textLength="129" x="283" y="964.1123">String = getFrequency</text><polygon fill="#181818" points="254,993.3906,264,997.3906,254,1001.3906,258,997.3906" style="stroke:#181818;stroke-width:1.0;"/><line style="stroke:#181818;stroke-width:1.0;" x1="26" x2="260" y1="997.3906" y2="997.3906"/><text fill="#000000" font-family="sans-serif" font-size="13" lengthAdjust="spacing" textLength="73" x="33" y="992.6357">save as draft</text><polygon fill="#181818" points="473,1021.9141,483,1025.9141,473,1029.9141,477,1025.9141" style="stroke:#181818;stroke-width:1.0;"/><line style="stroke:#181818;stroke-width:1.0;" x1="266" x2="479" y1="1025.9141" y2="1025.9141"/><text fill="#000000" font-family="sans-serif" font-size="13" lengthAdjust="spacing" textLength="77" x="273" y="1021.1592">saveAsDraft()</text><polygon fill="#181818" points="743,1050.4375,753,1054.4375,743,1058.4375,747,1054.4375" style="stroke:#181818;stroke-width:1.0;"/><line style="stroke:#181818;stroke-width:1.0;" x1="485" x2="749" y1="1054.4375" y2="1054.4375"/><text fill="#000000" font-family="sans-serif" font-size="13" lengthAdjust="spacing" textLength="77" x="492" y="1049.6826">saveAsDraft()</text><polygon fill="#181818" points="496,1078.9609,486,1082.9609,496,1086.9609,492,1082.9609" style="stroke:#181818;stroke-width:1.0;"/><line style="stroke:#181818;stroke-width:1.0;stroke-dasharray:2.0,2.0;" x1="490" x2="754" y1="1082.9609" y2="1082.9609"/><text fill="#000000" font-family="sans-serif" font-size="13" lengthAdjust="spacing" textLength="138" x="502" y="1078.2061">boolean = saveAsDraft()</text><polygon fill="#181818" points="277,1107.4844,267,1111.4844,277,1115.4844,273,1111.4844" style="stroke:#181818;stroke-width:1.0;"/><line style="stroke:#181818;stroke-width:1.0;stroke-dasharray:2.0,2.0;" x1="271" x2="484" y1="1111.4844" y2="1111.4844"/><text fill="#000000" font-family="sans-serif" font-size="13" lengthAdjust="spacing" textLength="138" x="283" y="1106.7295">boolean = saveAsDraft()</text><polygon fill="#181818" points="254,1136.0078,264,1140.0078,254,1144.0078,258,1140.0078" style="stroke:#181818;stroke-width:1.0;"/><line style="stroke:#181818;stroke-width:1.0;" x1="26" x2="260" y1="1140.0078" y2="1140.0078"/><text fill="#000000" font-family="sans-serif" font-size="13" lengthAdjust="spacing" textLength="73" x="33" y="1135.2529">save as draft</text><polygon fill="#181818" points="473,1164.5313,483,1168.5313,473,1172.5313,477,1168.5313" style="stroke:#181818;stroke-width:1.0;"/><line style="stroke:#181818;stroke-width:1.0;" x1="266" x2="479" y1="1168.5313" y2="1168.5313"/><text fill="#000000" font-family="sans-serif" font-size="13" lengthAdjust="spacing" textLength="77" x="273" y="1163.7764">saveAsDraft()</text><polygon fill="#181818" points="743,1193.0547,753,1197.0547,743,1201.0547,747,1197.0547" style="stroke:#181818;stroke-width:1.0;"/><line style="stroke:#181818;stroke-width:1.0;" x1="485" x2="749" y1="1197.0547" y2="1197.0547"/><text fill="#000000" font-family="sans-serif" font-size="13" lengthAdjust="spacing" textLength="77" x="492" y="1192.2998">saveAsDraft()</text><polygon fill="#181818" points="496,1221.5781,486,1225.5781,496,1229.5781,492,1225.5781" style="stroke:#181818;stroke-width:1.0;"/><line style="stroke:#181818;stroke-width:1.0;stroke-dasharray:2.0,2.0;" x1="490" x2="754" y1="1225.5781" y2="1225.5781"/><text fill="#000000" font-family="sans-serif" font-size="13" lengthAdjust="spacing" textLength="138" x="502" y="1220.8232">boolean = saveAsDraft()</text><polygon fill="#181818" points="277,1250.1016,267,1254.1016,277,1258.1016,273,1254.1016" style="stroke:#181818;stroke-width:1.0;"/><line style="stroke:#181818;stroke-width:1.0;stroke-dasharray:2.0,2.0;" x1="271" x2="484" y1="1254.1016" y2="1254.1016"/><text fill="#000000" font-family="sans-serif" font-size="13" lengthAdjust="spacing" textLength="138" x="283" y="1249.3467">boolean = saveAsDraft()</text><polygon fill="#181818" points="254,1278.625,264,1282.625,254,1286.625,258,1282.625" style="stroke:#181818;stroke-width:1.0;"/><line style="stroke:#181818;stroke-width:1.0;" x1="26" x2="260" y1="1282.625" y2="1282.625"/><text fill="#000000" font-family="sans-serif" font-size="13" lengthAdjust="spacing" textLength="73" x="33" y="1277.8701">save as draft</text><polygon fill="#181818" points="473,1307.1484,483,1311.1484,473,1315.1484,477,1311.1484" style="stroke:#181818;stroke-width:1.0;"/><line style="stroke:#181818;stroke-width:1.0;" x1="266" x2="479" y1="1311.1484" y2="1311.1484"/><text fill="#000000" font-family="sans-serif" font-size="13" lengthAdjust="spacing" textLength="81" x="273" y="1306.3936">saveBooking()</text><polygon fill="#181818" points="743,1335.6719,753,1339.6719,743,1343.6719,747,1339.6719" style="stroke:#181818;stroke-width:1.0;"/><line style="stroke:#181818;stroke-width:1.0;" x1="485" x2="749" y1="1339.6719" y2="1339.6719"/><text fill="#000000" font-family="sans-serif" font-size="13" lengthAdjust="spacing" textLength="81" x="492" y="1334.917">saveBooking()</text><polygon fill="#181818" points="496,1364.1953,486,1368.1953,496,1372.1953,492,1368.1953" style="stroke:#181818;stroke-width:1.0;"/><line style="stroke:#181818;stroke-width:1.0;stroke-dasharray:2.0,2.0;" x1="490" x2="754" y1="1368.1953" y2="1368.1953"/><text fill="#000000" font-family="sans-serif" font-size="13" lengthAdjust="spacing" textLength="142" x="502" y="1363.4404">boolean = saveBooking()</text><polygon fill="#181818" points="277,1392.7188,267,1396.7188,277,1400.7188,273,1396.7188" style="stroke:#181818;stroke-width:1.0;"/><line style="stroke:#181818;stroke-width:1.0;stroke-dasharray:2.0,2.0;" x1="271" x2="484" y1="1396.7188" y2="1396.7188"/><text fill="#000000" font-family="sans-serif" font-size="13" lengthAdjust="spacing" textLength="142" x="283" y="1391.9639">boolean = saveBooking()</text><!--MD5=[4a70a9f39c37a6708a5bbfcb0f908468]
@startuml


actor Client #red
participant Interface
participant ClientAddBooking
database  datasource

datasource - -> ClientAddBooking : displayEachServiceAsTabs
datasource - -> ClientAddBooking : displayBookingForm
datasource - -> ClientAddBooking : displayAddsOn

ClientAddBooking - -> Interface : displayEachServiceAsTabs
ClientAddBooking - -> Interface : displayBookingForm
ClientAddBooking - -> Interface : displayAddsOn
Client -> Interface : SelectService
Client -> Interface : getCustomerByName(String)
Interface -> ClientAddBooking : getCustomerByName(String)
ClientAddBooking -> datasource: getCustomerByName(String)
datasource - -> ClientAddBooking : int = getCustomerByName(String)
ClientAddBooking -> datasource: getCustomerByID(int)
alt invalid customer ID
datasource - -> ClientAddBooking : 0 = getCustomerByID(int)
ClientAddBooking - -> Interface : displayError
end
datasource - -> ClientAddBooking : int = getCustomerByID(int)
ClientAddBooking - -> Interface : displayClientDetails
Client -> Interface : selectServiceAddOnForEachService()
Interface -> datasource: selectServiceAddOnForEachService()
datasource - -> ClientAddBooking : int = selectServiceAddOnForEachService()
ClientAddBooking - -> Interface : computePayment(int)

ClientAddBooking - -> Interface : true = isPriceValid(double)

Client -> Interface : adjustTime
Interface ->ClientAddBooking : getDateTimeFromDateTimePicker
ClientAddBooking - -> Interface : true = isTimeValid(DateTime)
Client -> Interface : setPriorityLevel
Interface -> ClientAddBooking : getPriorityLevel(String)
ClientAddBooking - -> Interface : String = getPriorityLevel(String)
Client -> Interface : setFrequency
Interface -> ClientAddBooking : getFrequency(String)
ClientAddBooking - -> Interface : String = getFrequency

Client -> Interface : save as draft
Interface -> ClientAddBooking : saveAsDraft()
ClientAddBooking -> datasource : saveAsDraft()
datasource - -> ClientAddBooking : boolean = saveAsDraft()
ClientAddBooking - -> Interface : boolean = saveAsDraft()

Client -> Interface : save as draft
Interface -> ClientAddBooking : saveAsDraft()
ClientAddBooking -> datasource : saveAsDraft()
datasource - -> ClientAddBooking : boolean = saveAsDraft()
ClientAddBooking - -> Interface : boolean = saveAsDraft()

Client -> Interface : save as draft
Interface -> ClientAddBooking : saveBooking()
ClientAddBooking -> datasource : saveBooking()
datasource - -> ClientAddBooking : boolean = saveBooking()
ClientAddBooking - -> Interface : boolean = saveBooking()

@enduml

PlantUML version 1.2022.7(Tue Aug 23 01:01:30 CST 2022)
(GPL source distribution)
Java Runtime: OpenJDK Runtime Environment
JVM: OpenJDK 64-Bit Server VM
Default Encoding: Cp1252
Language: en
Country: US
--></g></svg>