<?xml version="1.0" encoding="UTF-8" standalone="no"?><svg xmlns="http://www.w3.org/2000/svg" xmlns:xlink="http://www.w3.org/1999/xlink" contentStyleType="text/css" height="742.8px" preserveAspectRatio="none" style="width:672px;height:742px;background:#FFFFFF;" version="1.1" viewBox="0 0 672 742" width="672px" zoomAndPan="magnify"><defs/><g><rect fill="none" height="44.1422" style="stroke:#000000;stroke-width:0.8999999999999999;" width="480.6" x="188.1" y="144.1547"/><line style="stroke:#181818;stroke-width:0.3;stroke-dasharray:5.0,5.0;" x1="15.6" x2="15.6" y1="48.3844" y2="694.8047"/><line style="stroke:#181818;stroke-width:0.3;stroke-dasharray:5.0,5.0;" x1="214.5" x2="214.5" y1="48.3844" y2="694.8047"/><line style="stroke:#181818;stroke-width:0.3;stroke-dasharray:5.0,5.0;" x1="426.9" x2="426.9" y1="48.3844" y2="694.8047"/><line style="stroke:#181818;stroke-width:0.3;stroke-dasharray:5.0,5.0;" x1="639.3" x2="639.3" y1="48.3844" y2="694.8047"/><text fill="#000000" font-family="sans-serif" font-size="8.4" lengthAdjust="spacing" textLength="21.6" x="3" y="46.6043">Client</text><ellipse cx="15.6" cy="8.1" fill="#008000" rx="4.8" ry="4.8" style="stroke:#181818;stroke-width:0.3;"/><path d="M15.6,12.9 L15.6,29.1 M7.8,17.7 L23.4,17.7 M15.6,29.1 L7.8,38.1 M15.6,29.1 L23.4,38.1 " fill="none" style="stroke:#181818;stroke-width:0.3;"/><text fill="#000000" font-family="sans-serif" font-size="8.4" lengthAdjust="spacing" textLength="21.6" x="3" y="701.809">Client</text><ellipse cx="15.6" cy="708.6891" fill="#008000" rx="4.8" ry="4.8" style="stroke:#181818;stroke-width:0.3;"/><path d="M15.6,713.4891 L15.6,729.6891 M7.8,718.2891 L23.4,718.2891 M15.6,729.6891 L7.8,738.6891 M15.6,729.6891 L23.4,738.6891 " fill="none" style="stroke:#181818;stroke-width:0.3;"/><rect fill="#E2E2F0" height="17.7844" rx="1.5" ry="1.5" style="stroke:#181818;stroke-width:0.3;" width="41.4" x="194.1" y="30"/><text fill="#000000" font-family="sans-serif" font-size="8.4" lengthAdjust="spacing" textLength="33" x="198.3" y="41.8043">Interface</text><rect fill="#E2E2F0" height="17.7844" rx="1.5" ry="1.5" style="stroke:#181818;stroke-width:0.3;" width="41.4" x="194.1" y="694.2047"/><text fill="#000000" font-family="sans-serif" font-size="8.4" lengthAdjust="spacing" textLength="33" x="198.3" y="706.009">Interface</text><rect fill="#E2E2F0" height="17.7844" rx="1.5" ry="1.5" style="stroke:#181818;stroke-width:0.3;" width="112.2" x="371.1" y="30"/><text fill="#000000" font-family="sans-serif" font-size="8.4" lengthAdjust="spacing" textLength="103.8" x="375.3" y="41.8043">ClientManageAppointments</text><rect fill="#E2E2F0" height="17.7844" rx="1.5" ry="1.5" style="stroke:#181818;stroke-width:0.3;" width="112.2" x="371.1" y="694.2047"/><text fill="#000000" font-family="sans-serif" font-size="8.4" lengthAdjust="spacing" textLength="103.8" x="375.3" y="706.009">ClientManageAppointments</text><text fill="#000000" font-family="sans-serif" font-size="8.4" lengthAdjust="spacing" textLength="42.6" x="616.5" y="46.6043">datasource</text><path d="M628.8,17.4 C628.8,11.4 639.6,11.4 639.6,11.4 C639.6,11.4 650.4,11.4 650.4,17.4 L650.4,33 C650.4,39 639.6,39 639.6,39 C639.6,39 628.8,39 628.8,33 L628.8,17.4 " fill="#E2E2F0" style="stroke:#181818;stroke-width:0.8999999999999999;"/><path d="M628.8,17.4 C628.8,23.4 639.6,23.4 639.6,23.4 C639.6,23.4 650.4,23.4 650.4,17.4 " fill="none" style="stroke:#181818;stroke-width:0.8999999999999999;"/><text fill="#000000" font-family="sans-serif" font-size="8.4" lengthAdjust="spacing" textLength="42.6" x="616.5" y="701.809">datasource</text><path d="M628.8,709.5891 C628.8,703.5891 639.6,703.5891 639.6,703.5891 C639.6,703.5891 650.4,703.5891 650.4,709.5891 L650.4,725.1891 C650.4,731.1891 639.6,731.1891 639.6,731.1891 C639.6,731.1891 628.8,731.1891 628.8,725.1891 L628.8,709.5891 " fill="#E2E2F0" style="stroke:#181818;stroke-width:0.8999999999999999;"/><path d="M628.8,709.5891 C628.8,715.5891 639.6,715.5891 639.6,715.5891 C639.6,715.5891 650.4,715.5891 650.4,709.5891 " fill="none" style="stroke:#181818;stroke-width:0.8999999999999999;"/><polygon fill="#181818" points="207.6,64.2984,213.6,66.6984,207.6,69.0984,210,66.6984" style="stroke:#181818;stroke-width:0.6;"/><line style="stroke:#181818;stroke-width:0.6;" x1="15.6" x2="211.2" y1="66.6984" y2="66.6984"/><text fill="#000000" font-family="sans-serif" font-size="7.8" lengthAdjust="spacing" textLength="52.2" x="19.8" y="63.8455">loginWithEmail</text><polygon fill="#181818" points="420,81.4125,426,83.8125,420,86.2125,422.4,83.8125" style="stroke:#181818;stroke-width:0.6;"/><line style="stroke:#181818;stroke-width:0.6;" x1="214.8" x2="423.6" y1="83.8125" y2="83.8125"/><text fill="#000000" font-family="sans-serif" font-size="7.8" lengthAdjust="spacing" textLength="109.8" x="219" y="80.9596">clientGetDetailsByEmail(String)</text><polygon fill="#181818" points="632.4,98.5266,638.4,100.9266,632.4,103.3266,634.8,100.9266" style="stroke:#181818;stroke-width:0.6;"/><line style="stroke:#181818;stroke-width:0.6;" x1="427.2" x2="636" y1="100.9266" y2="100.9266"/><text fill="#000000" font-family="sans-serif" font-size="7.8" lengthAdjust="spacing" textLength="109.8" x="431.4" y="98.0736">clientGetDetailsByEmail(String)</text><polygon fill="#181818" points="433.8,115.6406,427.8,118.0406,433.8,120.4406,431.4,118.0406" style="stroke:#181818;stroke-width:0.6;"/><line style="stroke:#181818;stroke-width:0.6;stroke-dasharray:2.0,2.0;" x1="430.2" x2="639" y1="118.0406" y2="118.0406"/><text fill="#000000" font-family="sans-serif" font-size="7.8" lengthAdjust="spacing" textLength="139.2" x="437.4" y="115.1877">Client = clientGetDetailsByEmail(String)</text><polygon fill="#181818" points="632.4,132.7547,638.4,135.1547,632.4,137.5547,634.8,135.1547" style="stroke:#181818;stroke-width:0.6;"/><line style="stroke:#181818;stroke-width:0.6;" x1="427.2" x2="636" y1="135.1547" y2="135.1547"/><text fill="#000000" font-family="sans-serif" font-size="7.8" lengthAdjust="spacing" textLength="112.8" x="431.4" y="132.3018">getAppointmentsByClient(Client)</text><path d="M188.1,144.1547 L224.7,144.1547 L224.7,148.0688 L218.7,154.0688 L188.1,154.0688 L188.1,144.1547 " fill="#EEEEEE" style="stroke:#000000;stroke-width:0.8999999999999999;"/><rect fill="none" height="44.1422" style="stroke:#000000;stroke-width:0.8999999999999999;" width="480.6" x="188.1" y="144.1547"/><text fill="#000000" font-family="sans-serif" font-size="7.8" font-weight="bold" lengthAdjust="spacing" textLength="9.6" x="197.1" y="151.8158">alt</text><text fill="#000000" font-family="sans-serif" font-size="6.6" font-weight="bold" lengthAdjust="spacing" textLength="91.2" x="233.7" y="151.3295">[No Booking/Appointments]</text><polygon fill="#181818" points="433.8,163.9828,427.8,166.3828,433.8,168.7828,431.4,166.3828" style="stroke:#181818;stroke-width:0.6;"/><line style="stroke:#181818;stroke-width:0.6;stroke-dasharray:2.0,2.0;" x1="430.2" x2="639" y1="166.3828" y2="166.3828"/><text fill="#000000" font-family="sans-serif" font-size="7.8" lengthAdjust="spacing" textLength="126.6" x="437.4" y="163.5299">0 = getAppointmentsByClient(Client)</text><polygon fill="#181818" points="221.4,181.0969,215.4,183.4969,221.4,185.8969,219,183.4969" style="stroke:#181818;stroke-width:0.6;"/><line style="stroke:#181818;stroke-width:0.6;stroke-dasharray:2.0,2.0;" x1="217.8" x2="426.6" y1="183.4969" y2="183.4969"/><text fill="#000000" font-family="sans-serif" font-size="7.8" lengthAdjust="spacing" textLength="141" x="225" y="180.6439">display none on upcoming Appointments</text><polygon fill="#181818" points="433.8,202.4109,427.8,204.8109,433.8,207.2109,431.4,204.8109" style="stroke:#181818;stroke-width:0.6;"/><line style="stroke:#181818;stroke-width:0.6;stroke-dasharray:2.0,2.0;" x1="430.2" x2="639" y1="204.8109" y2="204.8109"/><text fill="#000000" font-family="sans-serif" font-size="7.8" lengthAdjust="spacing" textLength="170.4" x="437.4" y="201.958">Appointments = getAppointmentsByClient(Client)</text><polygon fill="#181818" points="221.4,219.525,215.4,221.925,221.4,224.325,219,221.925" style="stroke:#181818;stroke-width:0.6;"/><line style="stroke:#181818;stroke-width:0.6;stroke-dasharray:2.0,2.0;" x1="217.8" x2="426.6" y1="221.925" y2="221.925"/><text fill="#000000" font-family="sans-serif" font-size="7.8" lengthAdjust="spacing" textLength="179.4" x="225" y="219.0721">display Upcoming/Previous/Cancelled appointments</text><polygon fill="#181818" points="207.6,236.6391,213.6,239.0391,207.6,241.4391,210,239.0391" style="stroke:#181818;stroke-width:0.6;"/><line style="stroke:#181818;stroke-width:0.6;" x1="15.6" x2="211.2" y1="239.0391" y2="239.0391"/><text fill="#000000" font-family="sans-serif" font-size="7.8" lengthAdjust="spacing" textLength="66.6" x="19.8" y="236.1861">viewBookingDetails</text><polygon fill="#181818" points="420,253.7531,426,256.1531,420,258.5531,422.4,256.1531" style="stroke:#181818;stroke-width:0.6;"/><line style="stroke:#181818;stroke-width:0.6;" x1="214.8" x2="423.6" y1="256.1531" y2="256.1531"/><text fill="#000000" font-family="sans-serif" font-size="7.8" lengthAdjust="spacing" textLength="79.8" x="219" y="253.3002">viewBookingDetails(int)</text><polygon fill="#181818" points="632.4,270.8672,638.4,273.2672,632.4,275.6672,634.8,273.2672" style="stroke:#181818;stroke-width:0.6;"/><line style="stroke:#181818;stroke-width:0.6;" x1="427.2" x2="636" y1="273.2672" y2="273.2672"/><text fill="#000000" font-family="sans-serif" font-size="7.8" lengthAdjust="spacing" textLength="79.8" x="431.4" y="270.4143">viewBookingDetails(int)</text><polygon fill="#181818" points="433.8,287.9813,427.8,290.3812,433.8,292.7813,431.4,290.3812" style="stroke:#181818;stroke-width:0.6;"/><line style="stroke:#181818;stroke-width:0.6;stroke-dasharray:2.0,2.0;" x1="430.2" x2="639" y1="290.3812" y2="290.3812"/><text fill="#000000" font-family="sans-serif" font-size="7.8" lengthAdjust="spacing" textLength="117.6" x="437.4" y="287.5283">Booking = viewBookingDetails(int)</text><polygon fill="#181818" points="221.4,305.0953,215.4,307.4953,221.4,309.8953,219,307.4953" style="stroke:#181818;stroke-width:0.6;"/><line style="stroke:#181818;stroke-width:0.6;stroke-dasharray:2.0,2.0;" x1="217.8" x2="426.6" y1="307.4953" y2="307.4953"/><text fill="#000000" font-family="sans-serif" font-size="7.8" lengthAdjust="spacing" textLength="117.6" x="225" y="304.6424">Booking = viewBookingDetails(int)</text><polygon fill="#181818" points="207.6,322.2094,213.6,324.6094,207.6,327.0094,210,324.6094" style="stroke:#181818;stroke-width:0.6;"/><line style="stroke:#181818;stroke-width:0.6;" x1="15.6" x2="211.2" y1="324.6094" y2="324.6094"/><text fill="#000000" font-family="sans-serif" font-size="7.8" lengthAdjust="spacing" textLength="64.2" x="19.8" y="321.7564">cancelAppoinment</text><polygon fill="#181818" points="420,339.3234,426,341.7234,420,344.1234,422.4,341.7234" style="stroke:#181818;stroke-width:0.6;"/><line style="stroke:#181818;stroke-width:0.6;" x1="214.8" x2="423.6" y1="341.7234" y2="341.7234"/><text fill="#000000" font-family="sans-serif" font-size="7.8" lengthAdjust="spacing" textLength="77.4" x="219" y="338.8705">cancelAppoinment(int)</text><polygon fill="#181818" points="632.4,356.4375,638.4,358.8375,632.4,361.2375,634.8,358.8375" style="stroke:#181818;stroke-width:0.6;"/><line style="stroke:#181818;stroke-width:0.6;" x1="427.2" x2="636" y1="358.8375" y2="358.8375"/><text fill="#000000" font-family="sans-serif" font-size="7.8" lengthAdjust="spacing" textLength="66" x="431.4" y="355.9846">isBeyond24Hrs(int)</text><polygon fill="#181818" points="433.8,373.5516,427.8,375.9516,433.8,378.3516,431.4,375.9516" style="stroke:#181818;stroke-width:0.6;"/><line style="stroke:#181818;stroke-width:0.6;stroke-dasharray:2.0,2.0;" x1="430.2" x2="639" y1="375.9516" y2="375.9516"/><text fill="#000000" font-family="sans-serif" font-size="7.8" lengthAdjust="spacing" textLength="102.6" x="437.4" y="373.0986">boolean = isBeyond24Hrs(int)</text><polygon fill="#181818" points="221.4,390.6656,215.4,393.0656,221.4,395.4656,219,393.0656" style="stroke:#181818;stroke-width:0.6;"/><line style="stroke:#181818;stroke-width:0.6;stroke-dasharray:2.0,2.0;" x1="217.8" x2="426.6" y1="393.0656" y2="393.0656"/><text fill="#000000" font-family="sans-serif" font-size="7.8" lengthAdjust="spacing" textLength="143.4" x="225" y="390.2127">double = chargeCancellationFee(boolean)</text><polygon fill="#181818" points="207.6,407.7797,213.6,410.1797,207.6,412.5797,210,410.1797" style="stroke:#181818;stroke-width:0.6;"/><line style="stroke:#181818;stroke-width:0.6;" x1="15.6" x2="211.2" y1="410.1797" y2="410.1797"/><text fill="#000000" font-family="sans-serif" font-size="7.8" lengthAdjust="spacing" textLength="73.2" x="19.8" y="407.3268">postponeAppoinment</text><polygon fill="#181818" points="420,424.8938,426,427.2938,420,429.6937,422.4,427.2938" style="stroke:#181818;stroke-width:0.6;"/><line style="stroke:#181818;stroke-width:0.6;" x1="214.8" x2="423.6" y1="427.2938" y2="427.2938"/><text fill="#000000" font-family="sans-serif" font-size="7.8" lengthAdjust="spacing" textLength="86.4" x="219" y="424.4408">postponeAppoinment(int)</text><polygon fill="#181818" points="632.4,442.0078,638.4,444.4078,632.4,446.8078,634.8,444.4078" style="stroke:#181818;stroke-width:0.6;"/><line style="stroke:#181818;stroke-width:0.6;" x1="427.2" x2="636" y1="444.4078" y2="444.4078"/><text fill="#000000" font-family="sans-serif" font-size="7.8" lengthAdjust="spacing" textLength="66" x="431.4" y="441.5549">isBeyond24Hrs(int)</text><polygon fill="#181818" points="433.8,459.1219,427.8,461.5219,433.8,463.9219,431.4,461.5219" style="stroke:#181818;stroke-width:0.6;"/><line style="stroke:#181818;stroke-width:0.6;stroke-dasharray:2.0,2.0;" x1="430.2" x2="639" y1="461.5219" y2="461.5219"/><text fill="#000000" font-family="sans-serif" font-size="7.8" lengthAdjust="spacing" textLength="102.6" x="437.4" y="458.6689">boolean = isBeyond24Hrs(int)</text><polygon fill="#181818" points="221.4,476.2359,215.4,478.6359,221.4,481.0359,219,478.6359" style="stroke:#181818;stroke-width:0.6;"/><line style="stroke:#181818;stroke-width:0.6;stroke-dasharray:2.0,2.0;" x1="217.8" x2="426.6" y1="478.6359" y2="478.6359"/><text fill="#000000" font-family="sans-serif" font-size="7.8" lengthAdjust="spacing" textLength="175.2" x="225" y="475.783">double = chargePostponeAppoinmentFee(boolean)</text><polygon fill="#181818" points="207.6,493.35,213.6,495.75,207.6,498.15,210,495.75" style="stroke:#181818;stroke-width:0.6;"/><line style="stroke:#181818;stroke-width:0.6;" x1="15.6" x2="211.2" y1="495.75" y2="495.75"/><text fill="#000000" font-family="sans-serif" font-size="7.8" lengthAdjust="spacing" textLength="139.2" x="19.8" y="492.8971">rateCleaningProfessionalByAppointment</text><polygon fill="#181818" points="420,510.4641,426,512.8641,420,515.2641,422.4,512.8641" style="stroke:#181818;stroke-width:0.6;"/><line style="stroke:#181818;stroke-width:0.6;" x1="214.8" x2="423.6" y1="512.8641" y2="512.8641"/><text fill="#000000" font-family="sans-serif" font-size="7.8" lengthAdjust="spacing" textLength="152.4" x="219" y="510.0111">rateCleaningProfessionalByAppointment(int)</text><polygon fill="#181818" points="632.4,527.5781,638.4,529.9781,632.4,532.3781,634.8,529.9781" style="stroke:#181818;stroke-width:0.6;"/><line style="stroke:#181818;stroke-width:0.6;" x1="427.2" x2="636" y1="529.9781" y2="529.9781"/><text fill="#000000" font-family="sans-serif" font-size="7.8" lengthAdjust="spacing" textLength="152.4" x="431.4" y="527.1252">rateCleaningProfessionalByAppointment(int)</text><polygon fill="#181818" points="433.8,544.6922,427.8,547.0922,433.8,549.4922,431.4,547.0922" style="stroke:#181818;stroke-width:0.6;"/><line style="stroke:#181818;stroke-width:0.6;stroke-dasharray:2.0,2.0;" x1="430.2" x2="639" y1="547.0922" y2="547.0922"/><text fill="#000000" font-family="sans-serif" font-size="7.8" lengthAdjust="spacing" textLength="189" x="437.4" y="544.2393">boolean = rateCleaningProfessionalByAppointment(int)</text><polygon fill="#181818" points="221.4,561.8063,215.4,564.2063,221.4,566.6062,219,564.2063" style="stroke:#181818;stroke-width:0.6;"/><line style="stroke:#181818;stroke-width:0.6;stroke-dasharray:2.0,2.0;" x1="217.8" x2="426.6" y1="564.2063" y2="564.2063"/><text fill="#000000" font-family="sans-serif" font-size="7.8" lengthAdjust="spacing" textLength="113.4" x="225" y="561.3533">displayRateByAppointmentId(int)</text><polygon fill="#181818" points="207.6,578.9203,213.6,581.3203,207.6,583.7203,210,581.3203" style="stroke:#181818;stroke-width:0.6;"/><line style="stroke:#181818;stroke-width:0.6;" x1="15.6" x2="211.2" y1="581.3203" y2="581.3203"/><text fill="#000000" font-family="sans-serif" font-size="7.8" lengthAdjust="spacing" textLength="184.8" x="19.8" y="578.4674">postAReviewToCleaningProfessionalAppointmentById</text><polygon fill="#181818" points="420,596.0344,426,598.4344,420,600.8344,422.4,598.4344" style="stroke:#181818;stroke-width:0.6;"/><line style="stroke:#181818;stroke-width:0.6;" x1="214.8" x2="423.6" y1="598.4344" y2="598.4344"/><text fill="#000000" font-family="sans-serif" font-size="7.8" lengthAdjust="spacing" textLength="198" x="219" y="595.5814">postAReviewToCleaningProfessionalAppointmentById(int)</text><polygon fill="#181818" points="632.4,613.1484,638.4,615.5484,632.4,617.9484,634.8,615.5484" style="stroke:#181818;stroke-width:0.6;"/><line style="stroke:#181818;stroke-width:0.6;" x1="427.2" x2="636" y1="615.5484" y2="615.5484"/><text fill="#000000" font-family="sans-serif" font-size="7.8" lengthAdjust="spacing" textLength="198" x="431.4" y="612.6955">postAReviewToCleaningProfessionalAppointmentById(int)</text><polygon fill="#181818" points="433.8,630.2625,427.8,632.6625,433.8,635.0625,431.4,632.6625" style="stroke:#181818;stroke-width:0.6;"/><line style="stroke:#181818;stroke-width:0.6;stroke-dasharray:2.0,2.0;" x1="430.2" x2="639" y1="632.6625" y2="632.6625"/><text fill="#000000" font-family="sans-serif" font-size="7.8" lengthAdjust="spacing" textLength="188.4" x="437.4" y="629.8096">boolean = displayReviewsByIdAndIsOkay(int, boolean)</text><polygon fill="#181818" points="221.4,647.3766,215.4,649.7766,221.4,652.1766,219,649.7766" style="stroke:#181818;stroke-width:0.6;"/><line style="stroke:#181818;stroke-width:0.6;stroke-dasharray:2.0,2.0;" x1="217.8" x2="426.6" y1="649.7766" y2="649.7766"/><text fill="#000000" font-family="sans-serif" font-size="7.8" lengthAdjust="spacing" textLength="188.4" x="225" y="646.9236">boolean = displayReviewsByIdAndIsOkay(int, boolean)</text><polygon fill="#181818" points="433.8,664.4906,427.8,666.8906,433.8,669.2906,431.4,666.8906" style="stroke:#181818;stroke-width:0.6;"/><line style="stroke:#181818;stroke-width:0.6;" x1="430.2" x2="639" y1="666.8906" y2="666.8906"/><text fill="#000000" font-family="sans-serif" font-size="7.8" lengthAdjust="spacing" textLength="95.4" x="437.4" y="664.0377">Notifications(Appointments)</text><polygon fill="#181818" points="221.4,681.6047,215.4,684.0047,221.4,686.4047,219,684.0047" style="stroke:#181818;stroke-width:0.6;"/><line style="stroke:#181818;stroke-width:0.6;stroke-dasharray:2.0,2.0;" x1="217.8" x2="426.6" y1="684.0047" y2="684.0047"/><text fill="#000000" font-family="sans-serif" font-size="7.8" lengthAdjust="spacing" textLength="95.4" x="225" y="681.1518">Notifications(Appointments)</text><!--MD5=[363e2ed73967414a71b75a65ca0d5a4f]
@startuml
actor Client #green
participant Interface
participant ClientManageAppointments
database datasource

Client -> Interface : loginWithEmail
Interface -> ClientManageAppointments : clientGetDetailsByEmail(String)
ClientManageAppointments -> datasource : clientGetDetailsByEmail(String)
datasource - -> ClientManageAppointments: Client = clientGetDetailsByEmail(String)
ClientManageAppointments -> datasource : getAppointmentsByClient(Client)

alt No Booking/Appointments
datasource - -> ClientManageAppointments : 0 = getAppointmentsByClient(Client)
ClientManageAppointments - -> Interface : display none on upcoming Appointments
end

datasource - -> ClientManageAppointments : Appointments = getAppointmentsByClient(Client)
ClientManageAppointments - -> Interface :display Upcoming/Previous/Cancelled appointments
Client -> Interface : viewBookingDetails
Interface -> ClientManageAppointments : viewBookingDetails(int)
ClientManageAppointments -> datasource : viewBookingDetails(int)
datasource - -> ClientManageAppointments : Booking = viewBookingDetails(int)
ClientManageAppointments - -> Interface :  Booking = viewBookingDetails(int)

Client -> Interface : cancelAppoinment
Interface -> ClientManageAppointments : cancelAppoinment(int)
ClientManageAppointments -> datasource : isBeyond24Hrs(int)
datasource - -> ClientManageAppointments : boolean = isBeyond24Hrs(int)
ClientManageAppointments - -> Interface : double = chargeCancellationFee(boolean)

Client -> Interface : postponeAppoinment
Interface -> ClientManageAppointments : postponeAppoinment(int)
ClientManageAppointments -> datasource : isBeyond24Hrs(int)
datasource - -> ClientManageAppointments : boolean = isBeyond24Hrs(int)
ClientManageAppointments - -> Interface : double = chargePostponeAppoinmentFee(boolean)

Client -> Interface : rateCleaningProfessionalByAppointment
Interface -> ClientManageAppointments : rateCleaningProfessionalByAppointment(int)
ClientManageAppointments -> datasource : rateCleaningProfessionalByAppointment(int)
datasource - -> ClientManageAppointments : boolean = rateCleaningProfessionalByAppointment(int)
ClientManageAppointments - -> Interface : displayRateByAppointmentId(int)

Client -> Interface : postAReviewToCleaningProfessionalAppointmentById
Interface -> ClientManageAppointments : postAReviewToCleaningProfessionalAppointmentById(int)
ClientManageAppointments -> datasource : postAReviewToCleaningProfessionalAppointmentById(int)
datasource - -> ClientManageAppointments : boolean = displayReviewsByIdAndIsOkay(int, boolean)
ClientManageAppointments - -> Interface : boolean = displayReviewsByIdAndIsOkay(int, boolean)
datasource -> ClientManageAppointments : Notifications(Appointments)
ClientManageAppointments - -> Interface : Notifications(Appointments)


@enduml

PlantUML version 1.2022.7(Tue Aug 23 01:01:30 CST 2022)
(GPL source distribution)
Java Runtime: OpenJDK Runtime Environment
JVM: OpenJDK 64-Bit Server VM
Default Encoding: Cp1252
Language: en
Country: US
--></g></svg>