<?xml version="1.0" encoding="UTF-8" standalone="no"?><svg xmlns="http://www.w3.org/2000/svg" xmlns:xlink="http://www.w3.org/1999/xlink" contentStyleType="text/css" height="867px" preserveAspectRatio="none" style="width:923px;height:867px;background:#FFFFFF;" version="1.1" viewBox="0 0 923 867" width="923px" zoomAndPan="magnify"><defs/><g><rect fill="none" height="45.0469" style="stroke:#000000;stroke-width:1.5;" width="399" x="208" y="468.4453"/><line style="stroke:#181818;stroke-width:0.5;stroke-dasharray:5.0,5.0;" x1="27" x2="27" y1="80.6406" y2="787.2031"/><line style="stroke:#181818;stroke-width:0.5;stroke-dasharray:5.0,5.0;" x1="252" x2="252" y1="80.6406" y2="787.2031"/><line style="stroke:#181818;stroke-width:0.5;stroke-dasharray:5.0,5.0;" x1="519" x2="519" y1="80.6406" y2="787.2031"/><line style="stroke:#181818;stroke-width:0.5;stroke-dasharray:5.0,5.0;" x1="787" x2="787" y1="80.6406" y2="787.2031"/><line style="stroke:#181818;stroke-width:0.5;stroke-dasharray:5.0,5.0;" x1="876" x2="876" y1="80.6406" y2="787.2031"/><text fill="#000000" font-family="sans-serif" font-size="14" lengthAdjust="spacing" textLength="39" x="5" y="77.6738">Admin</text><ellipse cx="27.5" cy="13.5" fill="#FF0000" rx="8" ry="8" style="stroke:#181818;stroke-width:0.5;"/><path d="M27.5,21.5 L27.5,48.5 M14.5,29.5 L40.5,29.5 M27.5,48.5 L14.5,63.5 M27.5,48.5 L40.5,63.5 " fill="none" style="stroke:#181818;stroke-width:0.5;"/><text fill="#000000" font-family="sans-serif" font-size="14" lengthAdjust="spacing" textLength="39" x="5" y="798.877">Admin</text><ellipse cx="27.5" cy="810.3438" fill="#FF0000" rx="8" ry="8" style="stroke:#181818;stroke-width:0.5;"/><path d="M27.5,818.3438 L27.5,845.3438 M14.5,826.3438 L40.5,826.3438 M27.5,845.3438 L14.5,860.3438 M27.5,845.3438 L40.5,860.3438 " fill="none" style="stroke:#181818;stroke-width:0.5;"/><rect fill="#E2E2F0" height="29.6406" rx="2.5" ry="2.5" style="stroke:#181818;stroke-width:0.5;" width="69" x="218" y="50"/><text fill="#000000" font-family="sans-serif" font-size="14" lengthAdjust="spacing" textLength="55" x="225" y="69.6738">Interface</text><rect fill="#E2E2F0" height="29.6406" rx="2.5" ry="2.5" style="stroke:#181818;stroke-width:0.5;" width="69" x="218" y="786.2031"/><text fill="#000000" font-family="sans-serif" font-size="14" lengthAdjust="spacing" textLength="55" x="225" y="805.877">Interface</text><rect fill="#E2E2F0" height="29.6406" rx="2.5" ry="2.5" style="stroke:#181818;stroke-width:0.5;" width="155" x="442" y="50"/><text fill="#000000" font-family="sans-serif" font-size="14" lengthAdjust="spacing" textLength="141" x="449" y="69.6738">AdminManageBooking</text><rect fill="#E2E2F0" height="29.6406" rx="2.5" ry="2.5" style="stroke:#181818;stroke-width:0.5;" width="155" x="442" y="786.2031"/><text fill="#000000" font-family="sans-serif" font-size="14" lengthAdjust="spacing" textLength="141" x="449" y="805.877">AdminManageBooking</text><text fill="#000000" font-family="sans-serif" font-size="14" lengthAdjust="spacing" textLength="71" x="749" y="77.6738">datasource</text><path d="M769.5,29 C769.5,19 787.5,19 787.5,19 C787.5,19 805.5,19 805.5,29 L805.5,55 C805.5,65 787.5,65 787.5,65 C787.5,65 769.5,65 769.5,55 L769.5,29 " fill="#E2E2F0" style="stroke:#181818;stroke-width:1.5;"/><path d="M769.5,29 C769.5,39 787.5,39 787.5,39 C787.5,39 805.5,39 805.5,29 " fill="none" style="stroke:#181818;stroke-width:1.5;"/><text fill="#000000" font-family="sans-serif" font-size="14" lengthAdjust="spacing" textLength="71" x="749" y="798.877">datasource</text><path d="M769.5,811.8438 C769.5,801.8438 787.5,801.8438 787.5,801.8438 C787.5,801.8438 805.5,801.8438 805.5,811.8438 L805.5,837.8438 C805.5,847.8438 787.5,847.8438 787.5,847.8438 C787.5,847.8438 769.5,847.8438 769.5,837.8438 L769.5,811.8438 " fill="#E2E2F0" style="stroke:#181818;stroke-width:1.5;"/><path d="M769.5,811.8438 C769.5,821.8438 787.5,821.8438 787.5,821.8438 C787.5,821.8438 805.5,821.8438 805.5,811.8438 " fill="none" style="stroke:#181818;stroke-width:1.5;"/><rect fill="#E2E2F0" height="29.6406" rx="2.5" ry="2.5" style="stroke:#181818;stroke-width:0.5;" width="81" x="836" y="50"/><text fill="#000000" font-family="sans-serif" font-size="14" lengthAdjust="spacing" textLength="67" x="843" y="69.6738">Integration</text><rect fill="#E2E2F0" height="29.6406" rx="2.5" ry="2.5" style="stroke:#181818;stroke-width:0.5;" width="81" x="836" y="786.2031"/><text fill="#000000" font-family="sans-serif" font-size="14" lengthAdjust="spacing" textLength="67" x="843" y="805.877">Integration</text><polygon fill="#181818" points="38.5,107.1641,28.5,111.1641,38.5,115.1641,34.5,111.1641" style="stroke:#181818;stroke-width:1.0;"/><line style="stroke:#181818;stroke-width:1.0;stroke-dasharray:2.0,2.0;" x1="32.5" x2="251.5" y1="111.1641" y2="111.1641"/><text fill="#000000" font-family="sans-serif" font-size="13" lengthAdjust="spacing" textLength="201" x="44.5" y="106.4092">displayBookingWithAssignStatus()</text><polygon fill="#181818" points="530.5,135.6875,520.5,139.6875,530.5,143.6875,526.5,139.6875" style="stroke:#181818;stroke-width:1.0;"/><line style="stroke:#181818;stroke-width:1.0;stroke-dasharray:2.0,2.0;" x1="524.5" x2="786.5" y1="139.6875" y2="139.6875"/><text fill="#000000" font-family="sans-serif" font-size="13" lengthAdjust="spacing" textLength="54" x="536.5" y="134.9326">Bookings</text><polygon fill="#181818" points="263.5,164.2109,253.5,168.2109,263.5,172.2109,259.5,168.2109" style="stroke:#181818;stroke-width:1.0;"/><line style="stroke:#181818;stroke-width:1.0;stroke-dasharray:2.0,2.0;" x1="257.5" x2="518.5" y1="168.2109" y2="168.2109"/><text fill="#000000" font-family="sans-serif" font-size="13" lengthAdjust="spacing" textLength="54" x="269.5" y="163.4561">Bookings</text><polygon fill="#181818" points="240.5,192.7344,250.5,196.7344,240.5,200.7344,244.5,196.7344" style="stroke:#181818;stroke-width:1.0;"/><line style="stroke:#181818;stroke-width:1.0;" x1="27.5" x2="246.5" y1="196.7344" y2="196.7344"/><text fill="#000000" font-family="sans-serif" font-size="13" lengthAdjust="spacing" textLength="128" x="34.5" y="191.9795">getIdBookingByClick()</text><polygon fill="#181818" points="507.5,221.2578,517.5,225.2578,507.5,229.2578,511.5,225.2578" style="stroke:#181818;stroke-width:1.0;"/><line style="stroke:#181818;stroke-width:1.0;" x1="252.5" x2="513.5" y1="225.2578" y2="225.2578"/><text fill="#000000" font-family="sans-serif" font-size="13" lengthAdjust="spacing" textLength="113" x="259.5" y="220.5029">getBookingById(int)</text><polygon fill="#181818" points="775.5,249.7813,785.5,253.7813,775.5,257.7813,779.5,253.7813" style="stroke:#181818;stroke-width:1.0;"/><line style="stroke:#181818;stroke-width:1.0;" x1="519.5" x2="781.5" y1="253.7813" y2="253.7813"/><text fill="#000000" font-family="sans-serif" font-size="13" lengthAdjust="spacing" textLength="113" x="526.5" y="249.0264">getBookingById(int)</text><polygon fill="#181818" points="530.5,278.3047,520.5,282.3047,530.5,286.3047,526.5,282.3047" style="stroke:#181818;stroke-width:1.0;"/><line style="stroke:#181818;stroke-width:1.0;stroke-dasharray:2.0,2.0;" x1="524.5" x2="786.5" y1="282.3047" y2="282.3047"/><text fill="#000000" font-family="sans-serif" font-size="13" lengthAdjust="spacing" textLength="176" x="536.5" y="277.5498">Booking = getBookingById(int)</text><polygon fill="#181818" points="263.5,306.8281,253.5,310.8281,263.5,314.8281,259.5,310.8281" style="stroke:#181818;stroke-width:1.0;"/><line style="stroke:#181818;stroke-width:1.0;stroke-dasharray:2.0,2.0;" x1="257.5" x2="518.5" y1="310.8281" y2="310.8281"/><text fill="#000000" font-family="sans-serif" font-size="13" lengthAdjust="spacing" textLength="176" x="269.5" y="306.0732">Booking = getBookingById(int)</text><polygon fill="#181818" points="507.5,335.3516,517.5,339.3516,507.5,343.3516,511.5,339.3516" style="stroke:#181818;stroke-width:1.0;"/><line style="stroke:#181818;stroke-width:1.0;" x1="27.5" x2="513.5" y1="339.3516" y2="339.3516"/><text fill="#000000" font-family="sans-serif" font-size="13" lengthAdjust="spacing" textLength="139" x="34.5" y="334.5967">getProfessionalByName</text><polygon fill="#181818" points="775.5,363.875,785.5,367.875,775.5,371.875,779.5,367.875" style="stroke:#181818;stroke-width:1.0;"/><line style="stroke:#181818;stroke-width:1.0;" x1="519.5" x2="781.5" y1="367.875" y2="367.875"/><text fill="#000000" font-family="sans-serif" font-size="13" lengthAdjust="spacing" textLength="181" x="526.5" y="363.1201">getProfessionalByName(String)</text><polygon fill="#181818" points="530.5,392.3984,520.5,396.3984,530.5,400.3984,526.5,396.3984" style="stroke:#181818;stroke-width:1.0;"/><line style="stroke:#181818;stroke-width:1.0;stroke-dasharray:2.0,2.0;" x1="524.5" x2="786.5" y1="396.3984" y2="396.3984"/><text fill="#000000" font-family="sans-serif" font-size="13" lengthAdjust="spacing" textLength="211" x="536.5" y="391.6436">int = getProfessionalByName(String)</text><polygon fill="#181818" points="775.5,420.9219,785.5,424.9219,775.5,428.9219,779.5,424.9219" style="stroke:#181818;stroke-width:1.0;"/><line style="stroke:#181818;stroke-width:1.0;" x1="519.5" x2="781.5" y1="424.9219" y2="424.9219"/><text fill="#000000" font-family="sans-serif" font-size="13" lengthAdjust="spacing" textLength="157" x="526.5" y="420.167">getProfessionalById(String)</text><polygon fill="#181818" points="530.5,449.4453,520.5,453.4453,530.5,457.4453,526.5,453.4453" style="stroke:#181818;stroke-width:1.0;"/><line style="stroke:#181818;stroke-width:1.0;stroke-dasharray:2.0,2.0;" x1="524.5" x2="786.5" y1="453.4453" y2="453.4453"/><text fill="#000000" font-family="sans-serif" font-size="13" lengthAdjust="spacing" textLength="244" x="536.5" y="448.6904">Professional = getProfessionalById(String)</text><path d="M208,468.4453 L269,468.4453 L269,474.9688 L259,484.9688 L208,484.9688 L208,468.4453 " fill="#EEEEEE" style="stroke:#000000;stroke-width:1.5;"/><rect fill="none" height="45.0469" style="stroke:#000000;stroke-width:1.5;" width="399" x="208" y="468.4453"/><text fill="#000000" font-family="sans-serif" font-size="13" font-weight="bold" lengthAdjust="spacing" textLength="16" x="223" y="481.2139">alt</text><text fill="#000000" font-family="sans-serif" font-size="11" font-weight="bold" lengthAdjust="spacing" textLength="202" x="284" y="480.4033">[Cleaning Professional not Available]</text><polygon fill="#181818" points="263.5,501.4922,253.5,505.4922,263.5,509.4922,259.5,505.4922" style="stroke:#181818;stroke-width:1.0;"/><line style="stroke:#181818;stroke-width:1.0;" x1="257.5" x2="518.5" y1="505.4922" y2="505.4922"/><text fill="#000000" font-family="sans-serif" font-size="13" lengthAdjust="spacing" textLength="234" x="269.5" y="500.7373">false = isAvailable(Professional,Booking)</text><polygon fill="#181818" points="263.5,537.0156,253.5,541.0156,263.5,545.0156,259.5,541.0156" style="stroke:#181818;stroke-width:1.0;"/><line style="stroke:#181818;stroke-width:1.0;" x1="257.5" x2="518.5" y1="541.0156" y2="541.0156"/><text fill="#000000" font-family="sans-serif" font-size="13" lengthAdjust="spacing" textLength="229" x="269.5" y="536.2607">true = isAvailable(Professional,Booking)</text><polygon fill="#181818" points="240.5,565.5391,250.5,569.5391,240.5,573.5391,244.5,569.5391" style="stroke:#181818;stroke-width:1.0;"/><line style="stroke:#181818;stroke-width:1.0;" x1="27.5" x2="246.5" y1="569.5391" y2="569.5391"/><text fill="#000000" font-family="sans-serif" font-size="13" lengthAdjust="spacing" textLength="105" x="34.5" y="564.7842">createAppoinment</text><polygon fill="#181818" points="507.5,594.0625,517.5,598.0625,507.5,602.0625,511.5,598.0625" style="stroke:#181818;stroke-width:1.0;"/><line style="stroke:#181818;stroke-width:1.0;" x1="252.5" x2="513.5" y1="598.0625" y2="598.0625"/><text fill="#000000" font-family="sans-serif" font-size="13" lengthAdjust="spacing" textLength="162" x="259.5" y="593.3076">createAppointment(boolean)</text><polygon fill="#181818" points="775.5,622.5859,785.5,626.5859,775.5,630.5859,779.5,626.5859" style="stroke:#181818;stroke-width:1.0;"/><line style="stroke:#181818;stroke-width:1.0;" x1="519.5" x2="781.5" y1="626.5859" y2="626.5859"/><text fill="#000000" font-family="sans-serif" font-size="13" lengthAdjust="spacing" textLength="158" x="526.5" y="621.8311">createAppoinment(boolean)</text><polygon fill="#181818" points="530.5,651.1094,520.5,655.1094,530.5,659.1094,526.5,655.1094" style="stroke:#181818;stroke-width:1.0;"/><line style="stroke:#181818;stroke-width:1.0;stroke-dasharray:2.0,2.0;" x1="524.5" x2="786.5" y1="655.1094" y2="655.1094"/><text fill="#000000" font-family="sans-serif" font-size="13" lengthAdjust="spacing" textLength="243" x="536.5" y="650.3545">Appoinment = createAppoinment(boolean)</text><polygon fill="#181818" points="864.5,679.6328,874.5,683.6328,864.5,687.6328,868.5,683.6328" style="stroke:#181818;stroke-width:1.0;"/><line style="stroke:#181818;stroke-width:1.0;" x1="519.5" x2="870.5" y1="683.6328" y2="683.6328"/><text fill="#000000" font-family="sans-serif" font-size="13" lengthAdjust="spacing" textLength="224" x="526.5" y="678.8779">pushNotification(Booking, Appoinment)</text><polygon fill="#181818" points="775.5,708.1563,785.5,712.1563,775.5,716.1563,779.5,712.1563" style="stroke:#181818;stroke-width:1.0;"/><line style="stroke:#181818;stroke-width:1.0;" x1="519.5" x2="781.5" y1="712.1563" y2="712.1563"/><text fill="#000000" font-family="sans-serif" font-size="13" lengthAdjust="spacing" textLength="196" x="526.5" y="707.4014">Notification(Booking, Appoinment)</text><polygon fill="#181818" points="263.5,736.6797,253.5,740.6797,263.5,744.6797,259.5,740.6797" style="stroke:#181818;stroke-width:1.0;"/><line style="stroke:#181818;stroke-width:1.0;stroke-dasharray:2.0,2.0;" x1="257.5" x2="518.5" y1="740.6797" y2="740.6797"/><text fill="#000000" font-family="sans-serif" font-size="13" lengthAdjust="spacing" textLength="243" x="269.5" y="735.9248">Appoinment = createAppoinment(boolean)</text><polygon fill="#181818" points="263.5,765.2031,253.5,769.2031,263.5,773.2031,259.5,769.2031" style="stroke:#181818;stroke-width:1.0;"/><line style="stroke:#181818;stroke-width:1.0;" x1="257.5" x2="518.5" y1="769.2031" y2="769.2031"/><text fill="#000000" font-family="sans-serif" font-size="13" lengthAdjust="spacing" textLength="196" x="269.5" y="764.4482">Notification(Booking, Appoinment)</text><!--MD5=[3906a6428193fe1282d707fa9d7c0b79]
@startuml
actor Admin #red
participant Interface
participant AdminManageBooking
database datasource
participant Integration

Interface - -> Admin : displayBookingWithAssignStatus()
datasource - -> AdminManageBooking : Bookings
AdminManageBooking - -> Interface : Bookings
Admin -> Interface :getIdBookingByClick()
Interface -> AdminManageBooking : getBookingById(int)
AdminManageBooking->datasource : getBookingById(int)
datasource - -> AdminManageBooking : Booking = getBookingById(int)
AdminManageBooking - -> Interface : Booking = getBookingById(int)
Admin -> AdminManageBooking: getProfessionalByName
AdminManageBooking -> datasource : getProfessionalByName(String)
datasource - -> AdminManageBooking : int = getProfessionalByName(String)
AdminManageBooking -> datasource : getProfessionalById(String)
datasource - -> AdminManageBooking : Professional = getProfessionalById(String)

alt Cleaning Professional not Available
AdminManageBooking -> Interface: false = isAvailable(Professional,Booking)
end

AdminManageBooking -> Interface: true = isAvailable(Professional,Booking)
Admin -> Interface : createAppoinment
Interface ->AdminManageBooking :createAppointment(boolean)
AdminManageBooking -> datasource : createAppoinment(boolean)
datasource - -> AdminManageBooking : Appoinment = createAppoinment(boolean)
AdminManageBooking -> Integration : pushNotification(Booking, Appoinment)
AdminManageBooking -> datasource : Notification(Booking, Appoinment)
AdminManageBooking - ->Interface : Appoinment = createAppoinment(boolean)
AdminManageBooking -> Interface : Notification(Booking, Appoinment)








@end

PlantUML version 1.2022.7(Tue Aug 23 01:01:30 CST 2022)
(GPL source distribution)
Java Runtime: OpenJDK Runtime Environment
JVM: OpenJDK 64-Bit Server VM
Default Encoding: Cp1252
Language: en
Country: US
--></g></svg>