<?xml version="1.0" encoding="UTF-8" standalone="no"?><svg xmlns="http://www.w3.org/2000/svg" xmlns:xlink="http://www.w3.org/1999/xlink" contentStyleType="text/css" height="525px" preserveAspectRatio="none" style="width:614px;height:525px;background:#FFFFFF;" version="1.1" viewBox="0 0 614 525" width="614px" zoomAndPan="magnify"><defs/><g><rect fill="none" height="73.5703" style="stroke:#000000;stroke-width:1.5;" width="513" x="95" y="297.3047"/><line style="stroke:#181818;stroke-width:0.5;stroke-dasharray:5.0,5.0;" x1="27" x2="27" y1="80.6406" y2="444.9219"/><line style="stroke:#181818;stroke-width:0.5;stroke-dasharray:5.0,5.0;" x1="139" x2="139" y1="80.6406" y2="444.9219"/><line style="stroke:#181818;stroke-width:0.5;stroke-dasharray:5.0,5.0;" x1="365" x2="365" y1="80.6406" y2="444.9219"/><line style="stroke:#181818;stroke-width:0.5;stroke-dasharray:5.0,5.0;" x1="559" x2="559" y1="80.6406" y2="444.9219"/><text fill="#000000" font-family="sans-serif" font-size="14" lengthAdjust="spacing" textLength="39" x="5" y="77.6738">Admin</text><ellipse cx="27.5" cy="13.5" fill="#FF0000" rx="8" ry="8" style="stroke:#181818;stroke-width:0.5;"/><path d="M27.5,21.5 L27.5,48.5 M14.5,29.5 L40.5,29.5 M27.5,48.5 L14.5,63.5 M27.5,48.5 L40.5,63.5 " fill="none" style="stroke:#181818;stroke-width:0.5;"/><text fill="#000000" font-family="sans-serif" font-size="14" lengthAdjust="spacing" textLength="39" x="5" y="456.5957">Admin</text><ellipse cx="27.5" cy="468.0625" fill="#FF0000" rx="8" ry="8" style="stroke:#181818;stroke-width:0.5;"/><path d="M27.5,476.0625 L27.5,503.0625 M14.5,484.0625 L40.5,484.0625 M27.5,503.0625 L14.5,518.0625 M27.5,503.0625 L40.5,518.0625 " fill="none" style="stroke:#181818;stroke-width:0.5;"/><rect fill="#E2E2F0" height="29.6406" rx="2.5" ry="2.5" style="stroke:#181818;stroke-width:0.5;" width="69" x="105" y="50"/><text fill="#000000" font-family="sans-serif" font-size="14" lengthAdjust="spacing" textLength="55" x="112" y="69.6738">Interface</text><rect fill="#E2E2F0" height="29.6406" rx="2.5" ry="2.5" style="stroke:#181818;stroke-width:0.5;" width="69" x="105" y="443.9219"/><text fill="#000000" font-family="sans-serif" font-size="14" lengthAdjust="spacing" textLength="55" x="112" y="463.5957">Interface</text><rect fill="#E2E2F0" height="29.6406" rx="2.5" ry="2.5" style="stroke:#181818;stroke-width:0.5;" width="93" x="319" y="50"/><text fill="#000000" font-family="sans-serif" font-size="14" lengthAdjust="spacing" textLength="79" x="326" y="69.6738">AddServices</text><rect fill="#E2E2F0" height="29.6406" rx="2.5" ry="2.5" style="stroke:#181818;stroke-width:0.5;" width="93" x="319" y="443.9219"/><text fill="#000000" font-family="sans-serif" font-size="14" lengthAdjust="spacing" textLength="79" x="326" y="463.5957">AddServices</text><text fill="#000000" font-family="sans-serif" font-size="14" lengthAdjust="spacing" textLength="71" x="521" y="77.6738">datasource</text><path d="M541.5,29 C541.5,19 559.5,19 559.5,19 C559.5,19 577.5,19 577.5,29 L577.5,55 C577.5,65 559.5,65 559.5,65 C559.5,65 541.5,65 541.5,55 L541.5,29 " fill="#E2E2F0" style="stroke:#181818;stroke-width:1.5;"/><path d="M541.5,29 C541.5,39 559.5,39 559.5,39 C559.5,39 577.5,39 577.5,29 " fill="none" style="stroke:#181818;stroke-width:1.5;"/><text fill="#000000" font-family="sans-serif" font-size="14" lengthAdjust="spacing" textLength="71" x="521" y="456.5957">datasource</text><path d="M541.5,469.5625 C541.5,459.5625 559.5,459.5625 559.5,459.5625 C559.5,459.5625 577.5,459.5625 577.5,469.5625 L577.5,495.5625 C577.5,505.5625 559.5,505.5625 559.5,505.5625 C559.5,505.5625 541.5,505.5625 541.5,495.5625 L541.5,469.5625 " fill="#E2E2F0" style="stroke:#181818;stroke-width:1.5;"/><path d="M541.5,469.5625 C541.5,479.5625 559.5,479.5625 559.5,479.5625 C559.5,479.5625 577.5,479.5625 577.5,469.5625 " fill="none" style="stroke:#181818;stroke-width:1.5;"/><polygon fill="#181818" points="353.5,107.1641,363.5,111.1641,353.5,115.1641,357.5,111.1641" style="stroke:#181818;stroke-width:1.0;"/><line style="stroke:#181818;stroke-width:1.0;" x1="139.5" x2="359.5" y1="111.1641" y2="111.1641"/><text fill="#000000" font-family="sans-serif" font-size="13" lengthAdjust="spacing" textLength="132" x="146.5" y="106.4092">fetchExistingServices()</text><polygon fill="#181818" points="547.5,135.6875,557.5,139.6875,547.5,143.6875,551.5,139.6875" style="stroke:#181818;stroke-width:1.0;"/><line style="stroke:#181818;stroke-width:1.0;" x1="365.5" x2="553.5" y1="139.6875" y2="139.6875"/><text fill="#000000" font-family="sans-serif" font-size="13" lengthAdjust="spacing" textLength="132" x="372.5" y="134.9326">fetchExistingServices()</text><polygon fill="#181818" points="376.5,164.2109,366.5,168.2109,376.5,172.2109,372.5,168.2109" style="stroke:#181818;stroke-width:1.0;"/><line style="stroke:#181818;stroke-width:1.0;stroke-dasharray:2.0,2.0;" x1="370.5" x2="558.5" y1="168.2109" y2="168.2109"/><text fill="#000000" font-family="sans-serif" font-size="13" lengthAdjust="spacing" textLength="85" x="382.5" y="163.4561">fetchServices()</text><polygon fill="#181818" points="150.5,192.7344,140.5,196.7344,150.5,200.7344,146.5,196.7344" style="stroke:#181818;stroke-width:1.0;"/><line style="stroke:#181818;stroke-width:1.0;stroke-dasharray:2.0,2.0;" x1="144.5" x2="364.5" y1="196.7344" y2="196.7344"/><text fill="#000000" font-family="sans-serif" font-size="13" lengthAdjust="spacing" textLength="85" x="156.5" y="191.9795">fetchServices()</text><polygon fill="#181818" points="127.5,221.2578,137.5,225.2578,127.5,229.2578,131.5,225.2578" style="stroke:#181818;stroke-width:1.0;"/><line style="stroke:#181818;stroke-width:1.0;" x1="27.5" x2="133.5" y1="225.2578" y2="225.2578"/><text fill="#000000" font-family="sans-serif" font-size="13" lengthAdjust="spacing" textLength="88" x="34.5" y="220.5029">addNewService</text><polygon fill="#181818" points="353.5,249.7813,363.5,253.7813,353.5,257.7813,357.5,253.7813" style="stroke:#181818;stroke-width:1.0;"/><line style="stroke:#181818;stroke-width:1.0;" x1="139.5" x2="359.5" y1="253.7813" y2="253.7813"/><text fill="#000000" font-family="sans-serif" font-size="13" lengthAdjust="spacing" textLength="127" x="146.5" y="249.0264">addServices(Services)</text><polygon fill="#181818" points="547.5,278.3047,557.5,282.3047,547.5,286.3047,551.5,282.3047" style="stroke:#181818;stroke-width:1.0;"/><line style="stroke:#181818;stroke-width:1.0;" x1="365.5" x2="553.5" y1="282.3047" y2="282.3047"/><text fill="#000000" font-family="sans-serif" font-size="13" lengthAdjust="spacing" textLength="127" x="372.5" y="277.5498">addServices(Services)</text><path d="M95,297.3047 L156,297.3047 L156,303.8281 L146,313.8281 L95,313.8281 L95,297.3047 " fill="#EEEEEE" style="stroke:#000000;stroke-width:1.5;"/><rect fill="none" height="73.5703" style="stroke:#000000;stroke-width:1.5;" width="513" x="95" y="297.3047"/><text fill="#000000" font-family="sans-serif" font-size="13" font-weight="bold" lengthAdjust="spacing" textLength="16" x="110" y="310.0732">alt</text><text fill="#000000" font-family="sans-serif" font-size="11" font-weight="bold" lengthAdjust="spacing" textLength="119" x="171" y="309.2627">[addingService failed]</text><polygon fill="#181818" points="376.5,330.3516,366.5,334.3516,376.5,338.3516,372.5,334.3516" style="stroke:#181818;stroke-width:1.0;"/><line style="stroke:#181818;stroke-width:1.0;stroke-dasharray:2.0,2.0;" x1="370.5" x2="558.5" y1="334.3516" y2="334.3516"/><text fill="#000000" font-family="sans-serif" font-size="13" lengthAdjust="spacing" textLength="170" x="382.5" y="329.5967">false = addServices(Services)</text><polygon fill="#181818" points="150.5,358.875,140.5,362.875,150.5,366.875,146.5,362.875" style="stroke:#181818;stroke-width:1.0;"/><line style="stroke:#181818;stroke-width:1.0;stroke-dasharray:2.0,2.0;" x1="144.5" x2="364.5" y1="362.875" y2="362.875"/><text fill="#000000" font-family="sans-serif" font-size="13" lengthAdjust="spacing" textLength="202" x="156.5" y="358.1201">display Adding new services Failed</text><polygon fill="#181818" points="376.5,394.3984,366.5,398.3984,376.5,402.3984,372.5,398.3984" style="stroke:#181818;stroke-width:1.0;"/><line style="stroke:#181818;stroke-width:1.0;stroke-dasharray:2.0,2.0;" x1="370.5" x2="558.5" y1="398.3984" y2="398.3984"/><text fill="#000000" font-family="sans-serif" font-size="13" lengthAdjust="spacing" textLength="165" x="382.5" y="393.6436">true = addServices(Services)</text><polygon fill="#181818" points="150.5,422.9219,140.5,426.9219,150.5,430.9219,146.5,426.9219" style="stroke:#181818;stroke-width:1.0;"/><line style="stroke:#181818;stroke-width:1.0;stroke-dasharray:2.0,2.0;" x1="144.5" x2="364.5" y1="426.9219" y2="426.9219"/><text fill="#000000" font-family="sans-serif" font-size="13" lengthAdjust="spacing" textLength="165" x="156.5" y="422.167">true = addServices(Services)</text><!--MD5=[b90bb69c35955b18c60720d8e45048d9]
@startuml
actor Admin #red
participant Interface
participant AddServices
database datasource

Interface -> AddServices : fetchExistingServices()
AddServices -> datasource : fetchExistingServices()
datasource - -> AddServices : fetchServices()
AddServices- ->Interface : fetchServices()

Admin -> Interface : addNewService
Interface -> AddServices : addServices(Services)
AddServices -> datasource : addServices(Services)
alt addingService failed
datasource - -> AddServices : false = addServices(Services)
AddServices - -> Interface : display Adding new services Failed
end
datasource - -> AddServices : true = addServices(Services)
AddServices - -> Interface : true = addServices(Services)


@enduml

PlantUML version 1.2022.7(Tue Aug 23 01:01:30 CST 2022)
(GPL source distribution)
Java Runtime: OpenJDK Runtime Environment
JVM: OpenJDK 64-Bit Server VM
Default Encoding: Cp1252
Language: en
Country: US
--></g></svg>